<?xml version="1.0" encoding="utf-8"?>
<!-- Generator: Adobe Illustrator 22.1.0, SVG Export Plug-In . SVG Version: 6.00 Build 0)  -->
<svg version="1.1" id="Calque_2" xmlns="http://www.w3.org/2000/svg" xmlns:xlink="http://www.w3.org/1999/xlink" x="0px" y="0px"
	 viewBox="0 0 311.8 200.3" style="enable-background:new 0 0 311.8 200.3;" xml:space="preserve">
<style type="text/css">
	.st0{fill:#D4DBF0;}
	.st1{fill:#D5B1D4;}
	.st2{fill:none;stroke:#CDA7C5;stroke-width:4.4741;stroke-linecap:round;stroke-linejoin:round;stroke-miterlimit:10;}
	.st3{fill:#8D8CC3;}
	.st4{fill:none;stroke:#816B88;stroke-width:4.1817;stroke-linecap:round;stroke-linejoin:round;stroke-miterlimit:10;}
	.st5{fill:#E5D0E7;}
	.st6{fill:#F5EEE4;}
	.st7{fill:none;stroke:#F5EEE4;stroke-width:1.4612;stroke-miterlimit:10;}
	.st8{fill:none;stroke:#241628;stroke-width:1.6634;stroke-linecap:round;stroke-linejoin:round;stroke-miterlimit:10;}
	.st9{fill:#241628;}
	.st10{fill:#F1BB04;}
	.st11{fill:#FFFFFF;}
	.st12{fill:none;}
	.st13{fill:none;stroke:#241628;stroke-width:1.996;stroke-linecap:round;stroke-linejoin:round;stroke-miterlimit:10;}
	.st14{fill:none;stroke:#241628;stroke-width:0.7544;stroke-linecap:round;stroke-linejoin:round;stroke-miterlimit:10;}
	.st15{fill:none;stroke:#241628;stroke-width:0.9053;stroke-linecap:round;stroke-linejoin:round;stroke-miterlimit:10;}
	.st16{fill:none;stroke:#241628;stroke-width:0.3601;stroke-linecap:round;stroke-linejoin:round;stroke-miterlimit:10;}
	.st17{fill:none;stroke:#241628;stroke-width:0.4322;stroke-linecap:round;stroke-linejoin:round;stroke-miterlimit:10;}
	.st18{fill:#F7B79F;}
	.st19{fill:#FDE093;}
	.st20{fill:#F5A883;}
	.st21{fill:#CFDCF2;}
	.st22{fill:none;stroke:#CFDCF2;stroke-width:1.0668;stroke-miterlimit:10;}
	.st23{fill:none;stroke:#8D8CC3;stroke-width:1.3524;stroke-miterlimit:10;}
	.st24{fill:none;stroke:#8D8CC3;stroke-width:0.6762;stroke-miterlimit:10;}
	.st25{fill:none;stroke:#8D8CC3;stroke-width:1.0143;stroke-miterlimit:10;}
	.st26{fill:none;stroke:#816B88;stroke-width:3.9534;stroke-linecap:round;stroke-linejoin:round;stroke-miterlimit:10;}
	.st27{fill:#EE8564;}
	.st28{fill:#D25D4A;}
	.st29{fill:#FAD835;}
	.st30{fill:#F7F2ED;}
	.st31{fill:none;stroke:#241628;stroke-width:0.5143;stroke-linecap:round;stroke-linejoin:round;stroke-miterlimit:10;}
	.st32{fill:none;stroke:#241628;stroke-width:0.6171;stroke-linecap:round;stroke-linejoin:round;stroke-miterlimit:10;}
	.st33{fill:none;stroke:#241628;stroke-width:0.4012;stroke-linecap:round;stroke-linejoin:round;stroke-miterlimit:10;}
	.st34{fill:none;stroke:#241628;stroke-width:0.4814;stroke-linecap:round;stroke-linejoin:round;stroke-miterlimit:10;}
</style>
<path class="st0" d="M291.9,161.1c0.9-7.7,5.4-35.1,7.5-40.7s6.3-9.2,9.1-8.9c2.7,0.3,8.1,5.2,7.7,11.1c-0.5,5.8-3.4,39.9-4.1,43.1
	C311.3,168.9,291.9,161.1,291.9,161.1z"/>
<path class="st1" d="M299.9,161.8c-0.8-10.5-4.1-38.3-7.4-48.8c-3.3-10.5-13.5-30.9-16.8-34.4s-11.8-6.1-15.4,2.8
	c-3.6,8.8-6.1,22.8-5.2,41.1s5,31.1,6.9,39.3C263.8,170.1,299.9,161.8,299.9,161.8z"/>
<path class="st0" d="M239.6,160.4c0.9-7.7,5.4-35.1,7.5-40.7c2.1-5.7,6.3-9.2,9.1-8.9c2.7,0.3,8.1,5.2,7.7,11.1
	c-0.5,5.8-3.4,39.9-4.1,43.1S239.6,160.4,239.6,160.4z"/>
<line class="st2" x1="268.1" y1="99.7" x2="286.6" y2="177.8"/>
<path class="st3" d="M234.9,200.8c0.9-11.1,4.3-40.5,7.7-51.6c3.4-11.1,13.9-32.7,17.3-36.5c3.4-3.8,12.2-6.4,15.9,2.9
	c3.7,9.3,6.2,24.1,5.4,43.5c-0.9,19.5-5.1,32.9-7.1,41.6C272,209.6,234.9,200.8,234.9,200.8z"/>
<line class="st4" x1="264" y1="141" x2="250" y2="203"/>
<path class="st1" d="M209.9,204c6.1-17.4-10.9-45.5-9.5-56.3c1.4-10.8,4.9-23.2,10.6-28.5c-1.3,12.3,9.5,32.9,10.5,40.7
	S230.9,196.2,209.9,204z"/>
<path class="st5" d="M205.9,207.9c-0.9-18.4-27.3-38-30.1-48.5s-4.3-23.4-1-30.4c3.5,11.9,21.2,26.8,25.1,33.7
	C203.7,169.6,222.4,192.7,205.9,207.9z"/>
<path class="st1" d="M214.9,201c16.3-8.7,22.8-40.8,31.2-47.8c8.4-7,19.3-13.8,27.1-13.8c-9.3,8.2-15.3,30.6-19.9,37
	C248.7,182.8,235.6,209.5,214.9,201z"/>
<path class="st5" d="M212.8,203.6c12.2-13.9,6.9-46.2,12.3-55.7s13.2-19.7,20.5-22.5c-5.8,11-3.5,34-5.6,41.6
	C238,174.7,235.2,204.3,212.8,203.6z"/>
<g>
	<path class="st6" d="M218.9,192.5c1.1-6.2-1-13.7-4.8-18.5c-3.8-4.7-5-7.5-5.9-9.6c-3.1,5.8-6.4,12.8-1.4,20
		C210.2,189.2,214.5,192.4,218.9,192.5z"/>
	<path class="st6" d="M215.5,204.6c-0.4-6.7-5.8-10.9-17.6-14C197,200.2,209.5,209.4,215.5,204.6z"/>
	<path class="st6" d="M215,206.7c5.1,3.6,13.3,4.4,18.8-6.1c1.4-2.7,3.3-6.6,4.1-7.2C231.8,193.4,219.6,194.8,215,206.7z"/>
	<path class="st6" d="M243.6,168.7c-1.7,6.8-5.6,20.9-13,22.5c-6.1,1.3-9.1,0.4-10.8-1.6c0.7-4.5,8.6-12.8,13.1-14.2
		C237.5,174,239.9,172.6,243.6,168.7z"/>
	<path class="st6" d="M223.1,162.3c-0.2-5.3-4.8-11.4-11.9-12.6c-7.1-1.2-8.9-2-9.9-3.1c1.6,6.9,7.7,15.9,12.5,17
		C218.6,164.7,223.1,162.3,223.1,162.3z"/>
	<path class="st6" d="M236.6,130.2c0,4.5-2.3,12.3-4.4,14.2s-5.5,4.7-8.7,5c0-6.4,3.1-9.7,6.6-12.3
		C233.5,134.4,236.6,130.2,236.6,130.2z"/>
	<path class="st6" d="M223.1,141.4c-0.2-4.2-5.5-6.9-11.1-8.9c-5.6-2-6.1-4.7-6.7-6.2c-0.6,4.8,1,11.7,4.5,15.1
		S223.4,148.5,223.1,141.4z"/>
	<path class="st6" d="M241.8,147.6c-0.9,7.9-4.1,15.3-6,17.8c-1.8,2.5-8.6,6.4-13.3,2C231.3,153.8,236.1,157,241.8,147.6z"/>
	<path class="st6" d="M223.1,134.8c3.5-4,7.4-13.5,5.4-19.8s-2.6-8.3-3.3-10.1c-0.8,5.8-4,8.2-5.3,10.9s-1.9,10.6,0.6,16.2
		C223.2,137.5,223.1,134.8,223.1,134.8z"/>
	<path class="st7" d="M222.6,133.4c1.4,9.1,2.7,43.9-7.6,73.3"/>
</g>
<g>
	<path class="st8" d="M127.9,76.8C127.9,76.8,127.8,76.8,127.9,76.8L127.9,76.8c-0.8,1.6,0.3,5.1,1.1,5.7"/>
	<path class="st9" d="M150.3,27.6v48.1c0.7-0.3,1.4-0.6,2-0.9c0,0,0,0,0,0c2.9-1.5,5.5-3.3,7.6-5.5V34c-0.6-0.6-1.3-1.2-1.9-1.8
		c-1.8-1.5-3.8-2.8-6-3.9C151.5,28.1,150.9,27.8,150.3,27.6z"/>
	<path class="st10" d="M160,34v35.1c3.3-3.3,5.7-7.5,6.8-12c0.4-1.8,0.7-3.7,0.7-5.6c0-0.6,0-1.1-0.1-1.7v0
		C167,43.8,164.3,38.3,160,34z"/>
	<path class="st9" d="M114.9,46.1c0,3,2.5,5.5,5.5,5.5c3,0,5.5-2.5,5.5-5.5c0-3-2.5-5.5-5.5-5.5C117.3,40.7,114.9,43.1,114.9,46.1z"
		/>
	<path class="st9" d="M114.9,46.1c0,3,2.5,5.5,5.5,5.5c3,0,5.5-2.5,5.5-5.5c0-3-2.5-5.5-5.5-5.5C117.3,40.7,114.9,43.1,114.9,46.1z"
		/>
	<path class="st11" d="M112.1,47c0,7.2,5.8,13,13,13c3.7,0,7.1-1.6,9.5-4.1c2.2-2.3,3.5-5.4,3.5-8.9c0-3.4-1.3-6.6-3.5-8.9
		c-2.4-2.5-5.7-4.1-9.5-4.1C117.9,34,112.1,39.9,112.1,47z M114.9,46.1c0-3,2.5-5.5,5.5-5.5c3,0,5.5,2.5,5.5,5.5
		c0,3-2.5,5.5-5.5,5.5C117.3,51.6,114.9,49.2,114.9,46.1z"/>
	<path class="st9" d="M114.9,46.1c0,3,2.5,5.5,5.5,5.5c3,0,5.5-2.5,5.5-5.5c0-3-2.5-5.5-5.5-5.5C117.3,40.7,114.9,43.1,114.9,46.1z"
		/>
	<path class="st9" d="M109.6,27.3c0,1.5,1.2,2.7,2.7,2.7c1.5,0,2.7-1.2,2.7-2.7c0-1.5-1.2-2.7-2.7-2.7
		C110.8,24.5,109.6,25.8,109.6,27.3z"/>
	<line class="st12" x1="160" y1="70.3" x2="160" y2="69.2"/>
	<path class="st13" d="M129.1,26.1c-3.6-4.2-9.2-7.6-14.2-6.6c-5.6,1.1-3.9,5.6-2.8,7.1"/>
	<path class="st8" d="M123.2,74.6c-0.9,1.6,0.3,5.2,1.2,5.8"/>
	<path class="st10" d="M107.5,51.6c0,10.6,7,19.8,17.2,24v0c1,0.4,2,0.8,3.1,1.1h0c0,0,0.1,0,0.1,0c2.1,0.7,4.4,1.1,6.7,1.3V55.9
		c-2.4,2.5-5.7,4.1-9.5,4.1c-7.2,0-13-5.8-13-13c0-7.2,5.8-13,13-13c3.7,0,7.1,1.6,9.5,4.1v-13c-1.9,0.2-3.7,0.5-5.5,0.9
		c-1.3,0.3-2.5,0.7-3.7,1.2h0C114.9,31.4,107.5,40.7,107.5,51.6z"/>
	<path class="st8" d="M154.4,78.5c0.8-0.6,2-4.2,1.2-5.8c0,0,0,0,0,0"/>
	<path class="st8" d="M148,81.5c0.8-0.6,1.8-3.7,1.3-5.4c-0.1,0-0.2,0.1-0.3,0.1"/>
	<path class="st9" d="M166.8,57.2h12c1.6,0-7.2-7.3-11.4-7.3v0c0,0.6,0.1,1.1,0.1,1.7C167.5,53.5,167.3,55.4,166.8,57.2z"/>
	<path class="st11" d="M152.1,28.3c2.2,1.1,4.2,2.4,6,3.9c4.3-0.5,8.3-2,9.4-3.6c2.1-2.9,0.9-6.4-2.2-7.4
		C162.3,20.4,153.3,23.8,152.1,28.3z"/>
	<path class="st9" d="M134.5,38.1c2.2,2.3,3.5,5.4,3.5,8.9c0,3.4-1.3,6.6-3.5,8.9v22.2c1,0.1,2,0.1,3,0.1c2.3,0,4.6-0.2,6.7-0.7
		V25.7c-0.7-0.2-1.5-0.3-2.2-0.4h0c-1.5-0.2-3-0.3-4.5-0.3c-1,0-2,0-3,0.1V38.1z"/>
	<path class="st11" d="M137.5,19.3c0.9,1.9,2.8,4.2,4.5,6h0c0.8,0.1,1.5,0.2,2.2,0.4c1.8,0.4,3.6,0.9,5.3,1.6
		c0.3-4-1.7-11.2-5.3-13.1C140.2,12.1,135.6,15.4,137.5,19.3z"/>
	<path class="st10" d="M144.2,25.7v51.8c1.7-0.3,3.3-0.8,4.8-1.4c0.1,0,0.2-0.1,0.3-0.1c0.3-0.1,0.7-0.3,1-0.4V27.6
		c-0.3-0.1-0.5-0.2-0.8-0.3C147.8,26.6,146.1,26.1,144.2,25.7z"/>
</g>
<g>
	<path class="st14" d="M246.3,82.3C246.3,82.3,246.3,82.3,246.3,82.3L246.3,82.3c-0.6,0.6-0.5,2.2-0.3,2.6"/>
	<path class="st9" d="M262.6,63.9l-6.4,20.9c0.3,0,0.7-0.1,1-0.1c0,0,0,0,0,0c1.4-0.2,2.8-0.7,4-1.4l4.7-15.2
		c-0.2-0.4-0.4-0.7-0.6-1c-0.6-0.9-1.3-1.7-2.1-2.5C263,64.3,262.8,64.1,262.6,63.9z"/>
	<path class="st10" d="M265.9,68l-4.7,15.2c1.9-1,3.5-2.5,4.6-4.3c0.4-0.7,0.8-1.5,1-2.3c0.1-0.2,0.1-0.5,0.2-0.7l0,0
		C267.6,73.2,267.2,70.4,265.9,68z"/>
	<path class="st9" d="M244.7,67.3c-0.4,1.3,0.3,2.7,1.6,3.1c1.3,0.4,2.7-0.3,3.1-1.6c0.4-1.3-0.3-2.7-1.6-3.1
		C246.5,65.2,245.1,65.9,244.7,67.3z"/>
	<path class="st9" d="M244.7,67.3c-0.4,1.3,0.3,2.7,1.6,3.1c1.3,0.4,2.7-0.3,3.1-1.6c0.4-1.3-0.3-2.7-1.6-3.1
		C246.5,65.2,245.1,65.9,244.7,67.3z"/>
	<path class="st11" d="M243.4,67.3c-1,3.1,0.8,6.4,3.9,7.4c1.6,0.5,3.3,0.3,4.6-0.5c1.3-0.7,2.2-1.9,2.7-3.4c0.5-1.5,0.3-3-0.3-4.3
		c-0.7-1.4-1.9-2.5-3.6-3C247.7,62.4,244.4,64.2,243.4,67.3z M244.7,67.3c0.4-1.3,1.8-2,3.1-1.6c1.3,0.4,2.1,1.8,1.6,3.1
		c-0.4,1.3-1.8,2.1-3.1,1.6C245.1,70,244.3,68.6,244.7,67.3z"/>
	<path class="st9" d="M244.7,67.3c-0.4,1.3,0.3,2.7,1.6,3.1c1.3,0.4,2.7-0.3,3.1-1.6c0.4-1.3-0.3-2.7-1.6-3.1
		C246.5,65.2,245.1,65.9,244.7,67.3z"/>
	<path class="st9" d="M244.9,58.4c-0.2,0.7,0.2,1.4,0.8,1.6c0.7,0.2,1.4-0.2,1.6-0.8c0.2-0.7-0.2-1.3-0.8-1.6
		C245.8,57.3,245.1,57.7,244.9,58.4z"/>
	<line class="st12" x1="261.1" y1="83.8" x2="261.2" y2="83.2"/>
	<path class="st15" d="M253.6,60.4c-1-2.3-3-4.5-5.3-4.8c-2.6-0.3-2.4,1.9-2.1,2.7"/>
	<path class="st14" d="M244.6,80.7c-0.6,0.6-0.6,2.3-0.3,2.7"/>
	<path class="st10" d="M240.8,68.6c-1.4,4.6,0.4,9.5,4.2,12.7l0,0c0.4,0.3,0.8,0.6,1.2,0.9l0,0c0,0,0,0,0,0c0.8,0.6,1.7,1,2.7,1.4
		l2.9-9.6c-1.4,0.8-3,1-4.6,0.5c-3.1-1-4.9-4.2-3.9-7.4c1-3.1,4.2-4.9,7.4-3.9c1.6,0.5,2.9,1.6,3.6,3l1.7-5.6
		c-0.8-0.2-1.7-0.3-2.5-0.3c-0.6,0-1.2,0-1.8,0l0,0C246.7,60.9,242.3,63.9,240.8,68.6z"/>
	<path class="st14" d="M257.6,86.6c0.4-0.2,1.4-1.6,1.3-2.4c0,0,0,0,0,0"/>
	<path class="st14" d="M254.4,87c0.4-0.1,1.3-1.4,1.3-2.2c0,0-0.1,0-0.1,0"/>
	<path class="st9" d="M265.8,78.9l5.2,1.6c0.7,0.2-2.1-4.1-4-4.7l0,0c-0.1,0.2-0.1,0.5-0.2,0.7C266.6,77.5,266.2,78.2,265.8,78.9z"
		/>
	<path class="st11" d="M263.2,64.5c0.8,0.8,1.5,1.6,2.1,2.5c1.9,0.3,3.9,0.2,4.6-0.3c1.3-1,1.3-2.6,0-3.5
		C268.7,62.4,264.4,62.7,263.2,64.5z"/>
	<path class="st9" d="M254.3,66.4c0.6,1.3,0.8,2.8,0.3,4.3c-0.5,1.5-1.5,2.7-2.7,3.4l-2.9,9.6c0.4,0.2,0.8,0.3,1.3,0.4
		c1,0.3,2,0.5,3,0.6l6.9-22.5c-0.3-0.2-0.6-0.3-0.9-0.5l0,0c-0.6-0.3-1.3-0.5-1.9-0.7c-0.4-0.1-0.9-0.2-1.3-0.3L254.3,66.4z"/>
	<path class="st11" d="M258.1,58.6c0.2,1,0.7,2.2,1.2,3.2l0,0c0.3,0.1,0.6,0.3,0.9,0.5c0.7,0.4,1.4,0.9,2.1,1.4
		c0.7-1.7,0.7-5.1-0.6-6.4C260.2,55.9,257.8,56.7,258.1,58.6z"/>
	<path class="st10" d="M260.2,62.3l-6.9,22.5c0.8,0.1,1.5,0.1,2.3,0c0,0,0.1,0,0.1,0c0.2,0,0.3,0,0.5,0l6.4-20.9
		c-0.1-0.1-0.2-0.2-0.3-0.2C261.6,63.2,260.9,62.7,260.2,62.3z"/>
</g>
<g>
	<path class="st16" d="M186.9,106.7C186.9,106.7,186.9,106.7,186.9,106.7L186.9,106.7c0,0.4,0.4,1.1,0.6,1.2"/>
	<path class="st9" d="M187.7,94.4l3.3,10.8c0.1-0.1,0.2-0.2,0.3-0.3c0,0,0,0,0,0c0.4-0.5,0.8-1.1,1.1-1.7l-2.4-7.9
		c-0.2-0.1-0.3-0.2-0.5-0.3c-0.4-0.2-0.9-0.4-1.4-0.5C188,94.4,187.9,94.4,187.7,94.4z"/>
	<path class="st10" d="M190,95.2l2.4,7.9c0.4-0.9,0.6-2,0.5-3.1c0-0.4-0.1-0.9-0.3-1.3c0-0.1-0.1-0.3-0.1-0.4l0,0
		C192,97,191.1,95.9,190,95.2z"/>
	<path class="st9" d="M182.3,100.6c0.2,0.7,0.9,1.1,1.4,0.9c0.6-0.2,0.9-0.9,0.7-1.6c-0.2-0.7-0.8-1.1-1.4-0.9
		C182.3,99.2,182,99.9,182.3,100.6z"/>
	<path class="st9" d="M182.3,100.6c0.2,0.7,0.9,1.1,1.4,0.9c0.6-0.2,0.9-0.9,0.7-1.6c-0.2-0.7-0.8-1.1-1.4-0.9
		C182.3,99.2,182,99.9,182.3,100.6z"/>
	<path class="st11" d="M181.8,101c0.5,1.6,2,2.6,3.4,2.1c0.7-0.2,1.2-0.8,1.5-1.5c0.3-0.6,0.3-1.4,0.1-2.2c-0.2-0.8-0.7-1.4-1.3-1.8
		c-0.6-0.4-1.4-0.6-2.1-0.4C182,97.7,181.3,99.4,181.8,101z M182.3,100.6c-0.2-0.7,0.1-1.4,0.7-1.5c0.6-0.2,1.2,0.2,1.4,0.9
		c0.2,0.7-0.1,1.4-0.7,1.6C183.1,101.7,182.5,101.3,182.3,100.6z"/>
	<path class="st9" d="M182.3,100.6c0.2,0.7,0.9,1.1,1.4,0.9c0.6-0.2,0.9-0.9,0.7-1.6c-0.2-0.7-0.8-1.1-1.4-0.9
		C182.3,99.2,182,99.9,182.3,100.6z"/>
	<path class="st9" d="M179.9,96.7c0.1,0.3,0.4,0.5,0.7,0.5c0.3-0.1,0.4-0.4,0.3-0.8c-0.1-0.3-0.4-0.5-0.7-0.4
		C180,96,179.8,96.4,179.9,96.7z"/>
	<line class="st12" x1="192.6" y1="103.4" x2="192.5" y2="103.1"/>
	<path class="st17" d="M183.6,95.3c-1-0.7-2.3-1.1-3.2-0.6c-1,0.6-0.4,1.5,0,1.7"/>
	<path class="st16" d="M185.8,106.5c-0.1,0.4,0.4,1.1,0.6,1.2"/>
	<path class="st10" d="M181.2,102.3c0.7,2.4,2.7,4,4.9,4.4l0,0c0.2,0,0.4,0.1,0.7,0.1l0,0c0,0,0,0,0,0c0.5,0,0.9,0,1.4-0.1l-1.5-5
		c-0.3,0.7-0.8,1.3-1.5,1.5c-1.4,0.4-2.9-0.5-3.4-2.1c-0.5-1.6,0.2-3.3,1.6-3.7c0.7-0.2,1.5-0.1,2.1,0.4l-0.9-2.9
		c-0.3,0.1-0.7,0.3-1,0.5c-0.2,0.1-0.4,0.3-0.6,0.5l0,0C181.2,97.3,180.5,99.8,181.2,102.3z"/>
	<path class="st16" d="M192.1,105.5c0.1-0.2,0.1-1.1-0.2-1.4c0,0,0,0,0,0"/>
	<path class="st16" d="M191,106.6c0.1-0.2,0.1-0.9-0.1-1.3c0,0,0,0,0,0"/>
	<path class="st9" d="M192.9,100l2.3-0.7c0.3-0.1-1.9-1.2-2.7-1l0,0c0,0.1,0.1,0.2,0.1,0.4C192.8,99.1,192.9,99.6,192.9,100z"/>
	<path class="st11" d="M188.1,94.4c0.5,0.1,1,0.3,1.4,0.5c0.8-0.4,1.4-0.9,1.6-1.4c0.2-0.8-0.3-1.5-0.9-1.5
		C189.5,92,188,93.3,188.1,94.4z"/>
	<path class="st9" d="M185.5,97.7c0.6,0.4,1,1,1.3,1.8c0.2,0.8,0.2,1.5-0.1,2.2l1.5,5c0.2,0,0.4-0.1,0.6-0.1
		c0.4-0.1,0.9-0.3,1.2-0.6l-3.6-11.6c-0.1,0-0.3,0-0.4,0l0,0c-0.3,0-0.6,0.1-0.9,0.2c-0.2,0.1-0.4,0.1-0.6,0.2L185.5,97.7z"/>
	<path class="st11" d="M184.7,93.3c0.3,0.4,0.8,0.8,1.3,1.1l0,0c0.2,0,0.3,0,0.4,0c0.4,0,0.8,0,1.1,0c-0.2-0.9-1.1-2.4-1.9-2.6
		C184.7,91.5,184.1,92.5,184.7,93.3z"/>
	<path class="st10" d="M186.4,94.3l3.6,11.6c0.3-0.2,0.6-0.4,0.8-0.6c0,0,0,0,0,0c0.1,0,0.1-0.1,0.2-0.2l-3.3-10.8
		c-0.1,0-0.1,0-0.2,0C187.2,94.3,186.8,94.3,186.4,94.3z"/>
</g>
<g>
	<path class="st18" d="M-199.1,87.7c2.4-1.6,6.5-7.1,7.4-10.5c0.9-3.4,1.8-7,1.6-8.6c-0.2-1.6-2.3-3-3.6-2.3
		c-1.3,0.7-3.1,1.1-3.5,0.6s-1.4-0.4-1.4,1.1c-0.1,1.5-2.9,9.5-3.5,12.9c-0.6,3-1.3,5.6-1,5.9C-202.8,87.1-199.1,87.7-199.1,87.7z"
		/>
	<path class="st18" d="M-203.3,86c0.7-2.3,2.5-8.4,2.6-11.7c0.1-3.2,0.1-5,0-6.1c-0.1-1.2-0.8-1.4-2.2-1.3c-1.4,0.2-3.4-1.8-4.1-2.6
		c-0.7-0.8-1.7-1.7-2.8-2.1s-2.9-0.1-3.4,2c-0.5,2-1.7,7.1,0,10.7c1.7,3.5,5.5,10.9,6.6,11.7S-203.7,87.3-203.3,86z"/>
	<path class="st18" d="M-182.4,73.4c-0.2-1-1.5-1.7-2.8-1.3c-1.3,0.4-5.8,3.3-6.5,5.1c-0.7,1.8-6.5,7-6.7,10.9c4.5,1.6,7.4,1,11-1
		s4.3-6,4.3-7.1C-183.2,78.9-182.2,74.4-182.4,73.4z"/>
	<path class="st18" d="M-211.9,89.1c-2.5-1-9.1-7.7-9.9-9.6s-2.1-5.2-1.7-7.4c0.3-2.2,3.8-2.7,5.8-2.1c2,0.6,4,1.4,5.2,4.4
		c1.3,3,4.7,10.9,5.6,11.9C-206.1,87.3-211.9,89.1-211.9,89.1z"/>
	
		<ellipse transform="matrix(0.1981 -0.9802 0.9802 0.1981 -247.3656 -124.8741)" class="st19" cx="-200" cy="88.8" rx="2.3" ry="9.5"/>
	<path class="st18" d="M-174.3,83.9c-0.9,2.9-7.6,10.5-11.8,11.7c-4.2,1.2-7.5,0.9-9.3,0c-1.8-0.9,0.6-5.9,2.4-6.8
		c1.8-1,9.4-7.1,12.3-7.1s3.2,0.7,4.1,1.3S-175.4,84.3-174.3,83.9z"/>
	<path class="st20" d="M-191.7,90c-1.1,2.2-6,11.1-12.5,9.5c-6.5-1.6-13.3-18.9-13.5-20.3c-0.2-1.5,1.4-1.5,2.1,0
		c0.7,1.5,6.7,7.2,11.4,9.7S-195.5,90.8-191.7,90z"/>
</g>
<path class="st1" d="M131.8,205.9c5.6-15.9-10-41.5-8.7-51.4s4.4-21.2,9.7-26.1c-1.2,11.3,8.7,30,9.6,37.2
	C143.2,172.8,151,198.8,131.8,205.9z"/>
<path class="st5" d="M127.7,207.1c0.2-16.9-22.7-36.2-24.6-46c-1.9-9.8-2.5-21.5,0.9-27.8c2.5,11,17.8,25.7,20.9,32.2
	C128,172,143.7,194.2,127.7,207.1z"/>
<path class="st1" d="M136.4,203.2c14.9-7.9,20.9-37.3,28.5-43.7c7.6-6.4,17.7-12.6,24.8-12.6c-8.5,7.5-14,28-18.2,33.8
	C167.3,186.6,155.4,211,136.4,203.2z"/>
<path class="st5" d="M134.5,205.6c11.1-12.7,6.3-42.2,11.2-50.9c4.9-8.7,12.1-18,18.7-20.5c-5.3,10-3.2,31.1-5.1,38
	C157.5,179.2,155,206.2,134.5,205.6z"/>
<path class="st1" d="M110,209.9c1.9-10.4,5.7-38.5,5-49.6c-0.7-11.1-6.2-33.9-8.7-38.3c-2.6-4.4-10.9-9.3-17.1-1.7
	c-6.1,7.6-12.4,20.4-16.4,38.5c-4,18.1-2.9,31.7-3.1,40.2S110,209.9,110,209.9z"/>
<g>
	<path class="st21" d="M12.3,190.5c1.2-4,4.8-7.9,8.6-9.6c3.7-1.7,5.3-3,6.5-3.9c0.1,4.5-0.1,9.6-5.3,12.4
		C18.5,191.2,15,191.8,12.3,190.5z"/>
	<path class="st21" d="M10.6,198.8c2.3-3.9,6.8-4.7,14.8-2.9C23,201.9,12.7,203.5,10.6,198.8z"/>
	<path class="st21" d="M10.3,200.2c-4.2,0.6-9.3-1.5-9.4-9.4c0-2,0.1-4.9-0.2-5.5C4.4,187.1,11.2,191.7,10.3,200.2z"/>
	<path class="st21" d="M4.9,168.7c-1.1,4.6-3.1,14.2,0.8,17.4c3.2,2.7,5.3,3,6.9,2.4c1-2.9-1.2-10.3-3.5-12.5
		C6.9,173.7,5.9,172.2,4.9,168.7z"/>
	<path class="st21" d="M19.1,171.2c1.7-3.1,6.4-5.3,11-3.9c4.6,1.5,5.9,1.5,6.9,1.2c-3.1,3.6-9.5,7.2-12.7,6.3
		S19.1,171.2,19.1,171.2z"/>
	<path class="st21" d="M21,147.8c-1.4,2.7-2.4,8.1-1.8,9.8c0.6,1.7,1.8,4.5,3.7,5.7c2-3.8,1.1-6.7-0.1-9.4
		C21.5,151.3,21,147.8,21,147.8z"/>
	<path class="st21" d="M25.6,158.7c1.4-2.5,5.4-2.4,9.4-1.9s5.1-0.9,5.9-1.7c-1.1,3.1-4.2,6.7-7.3,7.7
		C30.4,163.8,23.2,162.8,25.6,158.7z"/>
	<path class="st21" d="M12.5,156.6c-1.9,5-2.2,10.4-1.9,12.5c0.3,2.1,3.2,6.5,7.3,5.3C16.9,163.5,13,164,12.5,156.6z"/>
	<path class="st21" d="M27.6,154.7c-0.9-3.5-0.2-10.3,2.9-13.5c3.1-3.2,4.1-4.2,5.1-5c-1.3,3.7-0.1,6.1-0.2,8.1
		c-0.1,2-2.1,6.9-5.4,9.5S27.6,154.7,27.6,154.7z"/>
	<path class="st22" d="M28.4,154.1c-3.7,5-15.1,25.4-18.1,46.1"/>
</g>
<g>
	<path class="st21" d="M103.4,190.6c-1.1-4.1,0-9.2,2.3-12.6s3-5.3,3.5-6.8c2.4,3.8,5,8.3,1.9,13.3
		C109.1,187.9,106.4,190.3,103.4,190.6z"/>
	<path class="st21" d="M106.3,198.5c-0.1-4.5,3.3-7.6,11.1-10.3C118.5,194.6,110.6,201.4,106.3,198.5z"/>
	<path class="st21" d="M106.8,199.9c-3.2,2.7-8.7,3.6-12.9-3.1c-1.1-1.7-2.5-4.2-3.1-4.6C94.9,191.8,103.1,192.2,106.8,199.9z"/>
	<path class="st21" d="M85.7,175.9c1.5,4.4,4.8,13.7,9.8,14.4c4.2,0.6,6.1-0.2,7.1-1.6c-0.7-3-6.4-8.1-9.5-8.8
		S88.4,178.3,85.7,175.9z"/>
	<path class="st21" d="M99.1,170.5c-0.2-3.6,2.6-7.9,7.3-9.1c4.7-1.2,5.8-1.8,6.5-2.6c-0.7,4.7-4.3,11.1-7.5,12.1
		C102.3,171.9,99.1,170.5,99.1,170.5z"/>
	<path class="st21" d="M88.4,149.7c0.2,3,2.2,8.2,3.7,9.3s3.9,2.9,6.1,2.9c-0.3-4.3-2.6-6.3-5-7.9C90.7,152.4,88.4,149.7,88.4,149.7
		z"/>
	<path class="st21" d="M98,156.5c-0.1-2.8,3.3-4.9,7-6.5s3.8-3.5,4.2-4.5c0.7,3.2-0.1,7.9-2.2,10.4C104.8,158.3,98.2,161.3,98,156.5
		z"/>
	<path class="st21" d="M85.8,161.6c1,5.2,3.6,10,4.9,11.6c1.4,1.6,6.1,3.8,9,0.7C93.2,165.2,90.1,167.6,85.8,161.6z"/>
	<path class="st21" d="M97.7,152.1c-2.6-2.5-5.6-8.7-4.7-13c1-4.4,1.3-5.7,1.7-6.9c0.8,3.8,3.1,5.3,4.1,7c1,1.7,1.8,7,0.4,10.9
		C97.8,153.9,97.7,152.1,97.7,152.1z"/>
	<path class="st22" d="M98,151.1c-0.5,6.2,0.5,29.6,8.8,48.8"/>
</g>
<g>
	<path class="st21" d="M196.8,192.6c-1.1-4.1,0-9.2,2.3-12.6c2.3-3.4,3-5.3,3.5-6.8c2.4,3.8,5,8.3,1.9,13.3
		C202.5,190,199.8,192.3,196.8,192.6z"/>
	<path class="st21" d="M199.7,200.6c-0.1-4.5,3.3-7.6,11.1-10.3C212,196.7,204,203.5,199.7,200.6z"/>
	<path class="st21" d="M200.2,201.9c-3.2,2.7-8.7,3.6-12.9-3.1c-1.1-1.7-2.5-4.2-3.1-4.6C188.3,193.9,196.5,194.2,200.2,201.9z"/>
	<path class="st21" d="M179.1,177.9c1.5,4.4,4.8,13.7,9.8,14.4c4.2,0.6,6.1-0.2,7.1-1.6c-0.7-3-6.4-8.1-9.5-8.8
		C183.4,181.2,181.8,180.4,179.1,177.9z"/>
	<path class="st21" d="M192.5,172.6c-0.2-3.6,2.6-7.9,7.3-9.1c4.7-1.2,5.8-1.8,6.5-2.6c-0.7,4.7-4.3,11.1-7.5,12.1
		C195.7,173.9,192.5,172.6,192.5,172.6z"/>
	<path class="st21" d="M181.8,151.7c0.2,3,2.2,8.2,3.7,9.3c1.5,1.2,3.9,2.9,6.1,2.9c-0.3-4.3-2.6-6.3-5-7.9
		C184.1,154.4,181.8,151.7,181.8,151.7z"/>
	<path class="st21" d="M191.5,158.6c-0.1-2.8,3.3-4.9,7-6.5c3.7-1.6,3.8-3.5,4.2-4.5c0.7,3.2-0.1,7.9-2.2,10.4
		C198.2,160.4,191.6,163.3,191.5,158.6z"/>
	<path class="st21" d="M179.2,163.7c1,5.2,3.6,10,4.9,11.6s6.1,3.8,9,0.7C186.6,167.3,183.5,169.7,179.2,163.7z"/>
	<path class="st21" d="M191.1,154.1c-2.6-2.5-5.6-8.7-4.7-13c1-4.4,1.3-5.7,1.7-6.9c0.8,3.8,3.1,5.3,4.1,7s1.8,7,0.4,10.9
		C191.2,155.9,191.1,154.1,191.1,154.1z"/>
	<path class="st22" d="M191.4,153.2c-0.5,6.2,0.5,29.6,8.8,48.8"/>
</g>
<path class="st23" d="M142.3,133.5c-8.6,10.5-10.1,46.4-1.1,62.7"/>
<path class="st24" d="M102.1,150.8c-8.6,10.5-10.1,46.4-1.1,62.7"/>
<path class="st25" d="M89.8,182.7c-2,2-5.8,7.3-0.4,23.3"/>
<path class="st3" d="M21.7,201.4c0.8-10.3,4.1-37.8,7.3-48.1s13.3-30.5,16.6-34c3.3-3.5,11.7-6,15.2,2.7c3.5,8.7,6,22.5,5.2,40.6
	s-4.9,30.7-6.8,38.8C57.3,209.5,21.7,201.4,21.7,201.4z"/>
<path class="st0" d="M61,202.4c-0.8-7.6-2.4-35-1.6-40.9c0.8-5.9,4.1-10.3,6.8-10.5c2.7-0.3,9,3.3,9.8,9s5.4,39.2,5.4,42.4
	S61,202.4,61,202.4z"/>
<path class="st6" d="M111.4,213.1c-0.7-5.8-2-26.4-1.4-30.9c0.7-4.5,3.4-7.8,5.6-8c2.3-0.2,7.4,2.5,8.1,6.8s4.5,29.6,4.5,32.1
	C128.3,215.6,111.4,213.1,111.4,213.1z"/>
<line class="st26" x1="49.6" y1="145.6" x2="36.2" y2="203.4"/>
<g>
	<path class="st18" d="M23.6,198.7c1.6,4.6,6.4,8.5,15.7,7.6c1.1-1.8,2.6-3.8,4.3-4.3C40.1,199.9,26.7,196.7,23.6,198.7z"/>
	<path class="st18" d="M24.3,199.1c-2.7,0.5-9.7-1.6-12.1-2.8c-2.4-1.1-10.9-3.7-13.3-3.2c-1.7-1-2.3-4.3-1.1-5.4s0.8-3.1,0.8-4.3
		c0-1.1,3.5-0.8,4.7,0.7s10.2,10.8,12.5,11.7S24.3,199.1,24.3,199.1z"/>
	<path class="st18" d="M26.1,198.2c2.2-1.2,5.2-5,7-8.9c1.8-4,3.6-13.6,3.7-14.5c0-0.9-0.6-0.5-1.1,0c-0.5,0.5-1.4,0.2-2.3-0.5
		c-0.9-0.7-3.3-0.6-3.7-0.1c-0.4,0.5-2.4,3.7-2.9,4.7c-0.4,1-1.2,3.9-1.4,4.6c0.1-1.6-0.5-6.9-0.7-7.6c-0.2-0.7-0.7-2-1.1-2.3
		c-0.5-0.3-2.8,0.1-3.6-0.1c-0.8-0.1-4.3-0.3-4.4,1c-0.2,1.4,1,7.3,2.6,9.5c-1.6-1.5-4.3-5.3-4.8-6.1c-0.5-0.8-1.5-1.5-2.4-1.1
		c-0.9,0.4-4.7,0.9-5.2,0.9c-0.5,0-1.4,1.6-1,2.6c0.3,1,2.9,8.4,8.2,12.9C18.3,197.8,24.1,199.3,26.1,198.2z"/>
	<path class="st20" d="M46.2,185.2c0.2-0.6-0.5-0.8-0.9-0.8c-0.4,0-1.8-0.5-2-1s-1.4-2.1-2.1-1.5c-0.7,0.6-3.9,5.8-5.5,7.6
		c-1.6,1.8-7.6,8.4-12.1,9.2c6.1,0.2,16.2-4.6,18.4-6.2C44.2,190.8,45.6,186.6,46.2,185.2z"/>
	<path class="st20" d="M30.1,182.6c0.6,2.6,1.2,7.5-1.9,12.3c-0.5,0.8-2.8,3.5-3.9,4.2c0.1-3-0.7-7.1-1.1-8c-0.3-1-0.5-4.3-0.1-5.2
		s2.6-0.7,3.8-1S29.8,181.6,30.1,182.6z"/>
	<path class="st20" d="M10,183.8c0.1-1,0.6-2.7,2-1.6c1.4,1.1,5.7,4.3,6.6,4c0.9-0.3,3.2,0.7,3.1,1.9c0,1.1,2.8,10.2,2.5,11.1
		c-3.3-0.6-10.1-3.7-11.7-7.2S10,184.5,10,183.8z"/>
</g>
<g>
	<path class="st18" d="M89.9,184.8c-1.8,2.8-5.6,4.8-11.6,2.8c-0.5-1.4-1.2-2.9-2.2-3.5C78.7,183.2,88.1,182.9,89.9,184.8z"/>
	<path class="st18" d="M89.4,184.9c1.8,0.7,6.7,0.3,8.5-0.1c1.8-0.4,7.8-0.9,9.4-0.2c1.3-0.4,2.2-2.6,1.5-3.5
		c-0.6-0.9-0.1-2.2,0.1-3c0.1-0.8-2.2-1.1-3.2-0.2s-8.4,5.8-10.1,6S89.4,184.9,89.4,184.9z"/>
	<path class="st18" d="M88.3,184.1c-1.3-1.1-2.8-4.1-3.4-7c-0.6-2.9-0.5-9.6-0.3-10.2c0.1-0.6,0.4-0.2,0.7,0.1s0.9,0.3,1.6,0
		c0.7-0.4,2.3,0.1,2.5,0.5c0.2,0.4,1.1,2.8,1.2,3.6c0.1,0.8,0.2,2.8,0.3,3.3c0.2-1.1,1.3-4.5,1.6-5s0.7-1.2,1.1-1.3
		c0.4-0.1,1.8,0.4,2.4,0.5c0.6,0,2.9,0.4,2.8,1.3c-0.1,1-1.7,4.8-3.2,6c1.3-0.7,3.7-2.9,4.1-3.4c0.4-0.5,1.2-0.8,1.8-0.4
		s3,1.3,3.4,1.3c0.4,0.1,0.7,1.3,0.3,1.9c-0.4,0.6-3.2,5.2-7.4,7.5C93.6,184.9,89.5,185.1,88.3,184.1z"/>
	<path class="st20" d="M76.8,172.4c-0.1-0.4,0.4-0.5,0.7-0.4s1.3-0.1,1.5-0.4c0.2-0.3,1.2-1.2,1.6-0.7c0.4,0.5,1.8,4.4,2.6,5.9
		c0.8,1.5,3.9,6.8,6.8,7.9c-4.1-0.7-10.2-5.4-11.4-6.9C77.2,176.4,76.9,173.4,76.8,172.4z"/>
	<path class="st20" d="M87.9,173.1c-0.8,1.7-1.9,4.8-0.5,8.5c0.2,0.6,1.4,2.7,2,3.4c0.4-2,1.5-4.6,1.9-5.2c0.4-0.6,1-2.8,0.8-3.5
		s-1.7-0.8-2.4-1.2S88.2,172.4,87.9,173.1z"/>
	<path class="st20" d="M101.2,176.7c0.1-0.7,0-1.9-1.1-1.4c-1.1,0.5-4.4,2-5,1.7s-2.2,0-2.4,0.8s-3.4,6.4-3.3,7.1
		c2.3,0.1,7.3-1,8.9-3.1S101.1,177.2,101.2,176.7z"/>
</g>
<path class="st23" d="M73.8,94.4c-3.5,9.6-10.1,35.5-0.7,113.3"/>
<g>
	<path class="st18" d="M76.3,98.3c3.2-2.2,8.8-9.6,10-14.2c1.2-4.6,2.4-9.4,2.1-11.6c-0.3-2.2-3.1-4.1-4.8-3.1
		c-1.8,1-4.1,1.5-4.8,0.8c-0.6-0.7-1.9-0.6-1.9,1.4c-0.1,2-3.9,12.9-4.8,17.5c-0.8,4.1-1.8,7.6-1.3,8S76.3,98.3,76.3,98.3z"/>
	<path class="st18" d="M70.6,96.1c1-3.2,3.4-11.4,3.5-15.8c0.1-4.4,0.1-6.7,0-8.3c-0.1-1.6-1.1-1.9-3-1.7c-1.9,0.2-4.6-2.5-5.5-3.6
		c-0.9-1.1-2.3-2.3-3.9-2.9s-3.9-0.1-4.6,2.6c-0.7,2.7-2.4,9.6,0,14.4c2.4,4.8,7.4,14.8,8.9,15.8C67.6,97.8,70.1,97.8,70.6,96.1z"/>
	<path class="st18" d="M99,79.1c-0.2-1.4-2-2.3-3.8-1.8c-1.8,0.5-7.9,4.5-8.8,6.8c-0.9,2.4-8.8,9.5-9.1,14.7c6,2.1,10,1.3,14.8-1.3
		s5.8-8.1,5.8-9.6C97.8,86.5,99.2,80.4,99,79.1z"/>
	<path class="st18" d="M59,100.2c-3.3-1.3-12.3-10.4-13.4-12.9c-1.1-2.5-2.8-7.1-2.4-10.1c0.4-3,5.1-3.7,7.8-2.9
		c2.7,0.9,5.4,1.9,7.1,5.9c1.7,4.1,6.4,14.7,7.6,16.1C66.9,97.9,59,100.2,59,100.2z"/>
	
		<ellipse transform="matrix(0.1981 -0.9802 0.9802 0.1981 -37.5947 153.6532)" class="st19" cx="75.1" cy="99.8" rx="3.1" ry="12.9"/>
	<path class="st18" d="M109.9,93.3c-1.3,3.9-10.3,14.2-16,15.8c-5.7,1.7-10.2,1.2-12.6,0c-2.4-1.2,0.8-7.9,3.3-9.2
		c2.5-1.3,12.7-9.6,16.7-9.6c4,0,4.4,1,5.5,1.7C107.9,92.7,108.4,93.8,109.9,93.3z"/>
	<path class="st20" d="M86.3,101.5c-1.4,3-8.1,15-16.9,12.8c-8.8-2.2-18-25.5-18.3-27.5s1.8-2,2.8,0s9.1,9.8,15.5,13.1
		C75.8,103.3,81.2,102.6,86.3,101.5z"/>
</g>
<path class="st3" d="M136.2,175.8c1.8-7,8.3-9.8,9.7-13.3s2.8-8.3,2.8-11.6c-1.7,4-6.2,6.5-7.5,8.5
	C139.9,161.4,134.4,167,136.2,175.8z"/>
<path class="st3" d="M142.3,201.4c-4.6-11.9-12.9-15.3-15.9-21.3c-2.9-6-6.2-14-7.5-19.8c3.4,6.6,9.4,10.1,11.6,13.3
	C132.7,176.7,140.9,185.3,142.3,201.4z"/>
<path class="st3" d="M71.2,180.9c2.7-15.4,14-21.8,16.3-29.7c2.3-7.9,4.5-18.3,4.3-25.6c-2.7,8.8-10.5,14.6-12.7,19
	S67.7,161.4,71.2,180.9z"/>
<g>
	<path class="st27" d="M106.1,119.9c2.9-1.2,5.6-6.7,5.9-10.3c0.3-3.6,2.9-4.1,4.7-1.8c1.8,2.4,15.3,26.3,17.9,29.4
		c2.6,3.1-5.6-6.9-12.3-8.4C115.5,127.2,106.1,119.9,106.1,119.9z"/>
	<path class="st27" d="M120.6,104.7c-0.3-3.4,8.7-0.5,10.5-3.1c1.8-2.6,5.9-1.2,8.8,0c2.9,1.2,1.6,16.8,3.8,23s-6.3,16.7-9.1,12.5
		C131.8,133.1,121.9,118.1,120.6,104.7z"/>
	<path class="st27" d="M149,128c4.4-4.3,12.7-7.2,24.4-3.3c3.2,1.1,5.3,2.3,7.3,3.3c-2.6,2.8-17.9,11-26.1,7.2
		C146.4,131.3,149,128,149,128z"/>
	<path class="st27" d="M145.9,142c5.7,3.1,15.9,7.3,24.9,3.7c2.9-1.2-0.4-2,0-3.7s0.3-2.8,1.2-3.9c0.9-1-1-3.2-3.6-2s-10-1.1-13.9-1
		C150.7,135.2,145.9,142,145.9,142z"/>
	<path class="st27" d="M143.7,124.7c-1.9-7.3,3.8-18.1,6.2-20.6c2.3-2.5,4.3-3.8,5.3-3.9c1-0.2-1.6,3.3,0,5.3c1.6,2,4.5,4.5,6.6,5.3
		c2.2,0.8,2,5.3,0,7.2c-2,2-10.8,10.1-12.8,10C147,127.9,144.2,126.5,143.7,124.7z"/>
	
		<ellipse transform="matrix(0.5831 -0.8124 0.8124 0.5831 -44.8519 173.5503)" class="st19" cx="146.7" cy="130.5" rx="4" ry="9.5"/>
	<path class="st28" d="M134.6,137.2c-2.4-6.5-1.5-18.8,0-22.2c1.5-3.4,1.5,1.6,2.4,4.6c0.9,2.9,12.6,17.1,21.7,20.7
		c-9.7,1.3-18.8,3.1-21.4,0C134.6,137.2,134.6,137.2,134.6,137.2z"/>
</g>
<g>
	<path class="st29" d="M162.3,181.4c0-7,5.7-12.6,12.7-12.5c7,0,12.6,5.7,12.6,12.7c0,6.9-5.7,12.5-12.7,12.5
		C167.9,194,162.3,188.4,162.3,181.4z"/>
	<path class="st30" d="M187.2,184.1c0.4-1.8,0.4-3.5,0-5.3c0.8-0.2,1.6-0.3,2.4-0.5c2.5-0.5,4.9-1.1,7.4-1.6
		c0.7-0.1,1.5-0.2,2.2-0.1c1.8,0.3,3.2,1.9,3.5,3.8c0.2,1.5-0.1,2.9-1,4.2c-1,1.3-2.3,1.8-3.9,1.6c-2.5-0.5-5.1-1-7.6-1.5
		C189.2,184.5,188.3,184.3,187.2,184.1z"/>
	<path class="st30" d="M162.7,178.8c-0.4,1.8-0.4,3.5,0,5.3c-0.9,0.2-1.7,0.3-2.5,0.5c-2.4,0.5-4.9,1.1-7.3,1.5
		c-0.8,0.2-1.7,0.2-2.6,0c-1.6-0.4-2.5-1.6-2.9-3.1c-0.5-1.7-0.2-3.4,0.9-4.8c1-1.3,2.3-1.8,3.9-1.5c2.5,0.5,5,1,7.6,1.5
		C160.7,178.4,161.6,178.6,162.7,178.8z"/>
	<path class="st30" d="M163,185.3c0.6,1.7,1.5,3.2,2.6,4.6c-0.9,0.8-1.9,1.6-2.8,2.5c-1.6,1.4-3.2,2.9-4.9,4.4
		c-0.8,0.7-1.6,1.2-2.7,1.2c-2.2,0.1-4.3-1.5-4.9-3.8c-0.5-2-0.1-4.5,2.6-5.4c2.5-0.9,5-1.7,7.5-2.5
		C161.3,185.9,162.1,185.6,163,185.3z"/>
	<path class="st30" d="M186.9,177.6c-0.6-1.7-1.5-3.2-2.6-4.6c1.6-1.5,3.3-3,4.9-4.4c0.9-0.8,1.9-1.7,2.9-2.5
		c2.2-1.9,4.6-1.2,6.2,0.4c1.3,1.3,1.7,2.9,1.4,4.7c-0.3,1.4-1.1,2.3-2.4,2.8c-1.6,0.6-3.3,1.2-4.9,1.7c-0.9,0.3-1.8,0.6-2.7,0.9
		C188.8,176.9,187.9,177.2,186.9,177.6z"/>
	<path class="st30" d="M184.4,189.9c0.5-0.8,1.1-1.5,1.5-2.2c0.4-0.7,0.8-1.5,1.2-2.4c0.4,0.1,0.8,0.3,1.3,0.4
		c2.7,0.9,5.3,1.7,8,2.6c0.2,0.1,0.5,0.2,0.7,0.3c2.5,0.9,3.2,3.2,2.6,5.4c-0.6,2.3-2.7,4-4.9,3.9c-0.8,0-1.6-0.3-2.2-0.9
		c-1.6-1.4-3.2-2.8-4.8-4.2C186.5,191.9,185.4,190.9,184.4,189.9z"/>
	<path class="st30" d="M166.5,172.1c-2.3-2.5-4.6-5-6.8-7.6c-2.3-2.6-1.3-6.1,1.9-7.4c1.9-0.8,4.1-0.5,5.3,1c0.5,0.6,0.8,1.3,1.1,2
		c0.9,2.6,1.7,5.3,2.6,8c0.1,0.5,0.3,0.9,0.5,1.4C169.4,170,167.9,170.9,166.5,172.1z"/>
	<path class="st30" d="M163,177.6c-1.4-0.5-2.8-0.9-4.2-1.4c-1.9-0.6-3.8-1.2-5.7-1.9c-1.4-0.5-2.4-1.3-2.8-2.8
		c-0.9-3.2,1.7-6.7,5-6.5c0.8,0,1.5,0.3,2.1,0.9c1.7,1.4,3.4,2.9,5,4.4c1,0.9,2,1.8,3.1,2.8C164.4,174.3,163.6,175.8,163,177.6z"/>
	<path class="st30" d="M166.5,190.8c1.3,1.2,2.8,2.1,4.5,2.6c0,0.1,0,0.1,0,0.2c-1,3.1-2,6.1-3,9.2c-0.1,0.2-0.1,0.3-0.2,0.5
		c-1.1,2.7-3.6,3.7-6.2,2.5c-1.9-0.9-3.1-2.4-3.1-4.6c0-0.9,0.4-1.7,1-2.4c1.1-1.3,2.2-2.5,3.3-3.8
		C164,193.6,165.2,192.2,166.5,190.8z"/>
	<path class="st30" d="M183.4,172.1c-1.3-1.1-2.8-2.1-4.5-2.6c0-0.1-0.1-0.1-0.1-0.1c1-3.1,2-6.2,3.1-9.3c0.2-0.7,0.5-1.3,1-1.9
		c1.1-1.4,3.1-1.9,4.9-1.2c2,0.7,3.2,2,3.6,4.1c0.2,1-0.1,2-0.8,2.8c-1.3,1.6-2.7,3.1-4,4.6C185.6,169.7,184.5,170.9,183.4,172.1z"
		/>
	<path class="st30" d="M178.8,193.4c1.7-0.6,3.2-1.5,4.6-2.6c2.2,2.5,4.5,4.9,6.6,7.4c2.5,2.9,1.4,6.7-2.3,7.8
		c-2,0.6-4.6,0.2-5.5-2.6c-0.8-2.4-1.6-4.8-2.4-7.2C179.5,195.2,179.1,194.3,178.8,193.4z"/>
	<path class="st30" d="M177.6,169.1c-0.9-0.1-1.8-0.2-2.7-0.2c-0.9,0-1.8,0.1-2.7,0.2c-0.2-1.1-0.5-2.3-0.7-3.4
		c-0.4-2.1-0.9-4.3-1.4-6.4c-0.6-3.3,1.9-6,5.3-5.5c0.9,0.1,1.7,0.4,2.4,0.9c1.6,1.1,2,2.6,1.7,4.4c-0.6,3-1.2,6-1.9,9
		C177.8,168.3,177.7,168.7,177.6,169.1z"/>
	<path class="st30" d="M177.6,193.7c0.5,2.3,1,4.5,1.4,6.7c0.2,1.2,0.5,2.3,0.7,3.5c0.5,2.6-1.1,4.8-3.7,5.2
		c-1.7,0.3-3.2-0.1-4.5-1.2c-1.3-1.1-1.5-2.6-1.2-4.2c0.6-2.8,1.2-5.6,1.8-8.4c0.1-0.5,0.2-1,0.3-1.5
		C174.1,194.1,175.8,194.1,177.6,193.7z"/>
</g>
<g>
	<path class="st27" d="M111.6,162.1c0.1-1.2,1.9-2.6,3.1-3.1c1.2-0.4,1.2-1.4,0.2-1.9s-10.9-3-12.2-3.6c-1.4-0.7,3,1.3,4.2,3.6
		C108.1,159.4,111.6,162.1,111.6,162.1z"/>
	<path class="st27" d="M115.6,155.5c1.3-0.2-0.6-3.2,0.1-4c0.8-0.9-0.1-2.2-0.8-3.2c-0.7-0.9-6.2,1-8.6,0.8s-5.4,3.9-3.6,4.5
		C104.4,154.1,110.7,156.3,115.6,155.5z"/>
	<path class="st27" d="M104.6,147.5c1.1-2,1.4-5.2-1.1-9.1c-0.7-1.1-1.3-1.7-1.9-2.3c-0.8,1.2-2.2,7.5-0.1,10.1
		C103.7,148.8,104.6,147.5,104.6,147.5z"/>
	<path class="st27" d="M99.9,149.9c-1.7-1.8-4.1-5-3.7-8.6c0.1-1.2,0.8-0.1,1.3-0.3c0.5-0.3,1-0.4,1.3-0.8c0.3-0.4,1.2,0.1,1.1,1.1
		s1.3,3.5,1.7,4.9C101.8,147.6,99.9,149.9,99.9,149.9z"/>
	<path class="st27" d="M106.3,149.1c2.8,0,6.1-3.1,6.8-4.2s0.9-1.9,0.9-2.3c0-0.4-1,0.9-1.9,0.5c-0.8-0.4-2-1.2-2.5-1.9
		c-0.5-0.7-2.1-0.2-2.6,0.7c-0.5,0.9-2.6,4.8-2.4,5.5C104.8,148.2,105.6,149.1,106.3,149.1z"/>
	
		<ellipse transform="matrix(0.6361 -0.7716 0.7716 0.6361 -76.8245 134.2594)" class="st19" cx="103.9" cy="148.6" rx="1.5" ry="3.5"/>
	<path class="st28" d="M102.7,153.5c2.5,0.2,6.9-1.3,8-2.1c1.1-0.8-0.7-0.4-1.9-0.4c-1.1,0-7.3-2.9-9.5-5.8c0.5,3.6,0.7,7,2,7.7
		S102.7,153.5,102.7,153.5z"/>
</g>
<g>
	<path class="st31" d="M51,145C51,145,51,145,51,145L51,145c0.3,0.5-0.1,1.6-0.4,1.8"/>
	<path class="st9" d="M44,129.8v14.9c-0.2-0.1-0.4-0.2-0.6-0.3c0,0,0,0,0,0c-0.9-0.5-1.7-1-2.4-1.7v-10.9c0.2-0.2,0.4-0.4,0.6-0.5
		c0.6-0.5,1.2-0.9,1.9-1.2C43.7,130,43.8,129.9,44,129.8z"/>
	<path class="st10" d="M41,131.8v10.9c-1-1-1.8-2.3-2.1-3.7c-0.1-0.6-0.2-1.1-0.2-1.7c0-0.2,0-0.4,0-0.5v0
		C38.9,134.8,39.7,133.1,41,131.8z"/>
	<path class="st9" d="M55,135.6c0,0.9-0.8,1.7-1.7,1.7c-0.9,0-1.7-0.8-1.7-1.7c0-0.9,0.8-1.7,1.7-1.7C54.2,133.9,55,134.6,55,135.6z
		"/>
	<path class="st9" d="M55,135.6c0,0.9-0.8,1.7-1.7,1.7c-0.9,0-1.7-0.8-1.7-1.7c0-0.9,0.8-1.7,1.7-1.7C54.2,133.9,55,134.6,55,135.6z
		"/>
	<path class="st11" d="M51.8,131.8c-1.2,0-2.2,0.5-2.9,1.3c-0.7,0.7-1.1,1.7-1.1,2.7c0,1.1,0.4,2,1.1,2.7c0.7,0.8,1.8,1.3,2.9,1.3
		c2.2,0,4-1.8,4-4C55.8,133.6,54,131.8,51.8,131.8z M53.3,137.3c-0.9,0-1.7-0.8-1.7-1.7c0-0.9,0.8-1.7,1.7-1.7
		c0.9,0,1.7,0.8,1.7,1.7C55,136.5,54.2,137.3,53.3,137.3z"/>
	<path class="st9" d="M55,135.6c0,0.9-0.8,1.7-1.7,1.7c-0.9,0-1.7-0.8-1.7-1.7c0-0.9,0.8-1.7,1.7-1.7C54.2,133.9,55,134.6,55,135.6z
		"/>
	<path class="st9" d="M56.6,129.7c0,0.5-0.4,0.8-0.8,0.8c-0.5,0-0.8-0.4-0.8-0.8c0-0.5,0.4-0.8,0.8-0.8
		C56.3,128.9,56.6,129.3,56.6,129.7z"/>
	<line class="st12" x1="41" y1="143" x2="41" y2="142.7"/>
	<path class="st32" d="M50.6,129.4c1.1-1.3,2.8-2.3,4.4-2c1.7,0.3,1.2,1.7,0.9,2.2"/>
	<path class="st31" d="M52.4,144.4c0.3,0.5-0.1,1.6-0.4,1.8"/>
	<path class="st10" d="M57.3,137.3c0,3.3-2.2,6.1-5.3,7.4v0c-0.3,0.1-0.6,0.2-1,0.3h0c0,0,0,0,0,0c-0.7,0.2-1.3,0.3-2.1,0.4v-6.9
		c0.7,0.8,1.8,1.3,2.9,1.3c2.2,0,4-1.8,4-4c0-2.2-1.8-4-4-4c-1.2,0-2.2,0.5-2.9,1.3v-4c0.6,0.1,1.1,0.2,1.7,0.3
		c0.4,0.1,0.8,0.2,1.1,0.4h0C55,131,57.3,133.9,57.3,137.3z"/>
	<path class="st31" d="M42.8,145.6c-0.3-0.2-0.6-1.3-0.4-1.8c0,0,0,0,0,0"/>
	<path class="st31" d="M44.7,146.5c-0.2-0.2-0.6-1.1-0.4-1.7c0,0,0.1,0,0.1,0"/>
	<path class="st9" d="M38.9,139h-3.7c-0.5,0,2.2-2.2,3.5-2.2v0c0,0.2,0,0.3,0,0.5C38.7,137.8,38.8,138.4,38.9,139z"/>
	<path class="st11" d="M43.5,130.1c-0.7,0.3-1.3,0.7-1.9,1.2c-1.3-0.2-2.6-0.6-2.9-1.1c-0.6-0.9-0.3-2,0.7-2.3
		C40.3,127.6,43.1,128.7,43.5,130.1z"/>
	<path class="st9" d="M48.9,133.1c-0.7,0.7-1.1,1.7-1.1,2.7c0,1.1,0.4,2,1.1,2.7v6.9c-0.3,0-0.6,0-0.9,0c-0.7,0-1.4-0.1-2.1-0.2v-16
		c0.2,0,0.5-0.1,0.7-0.1h0c0.5-0.1,0.9-0.1,1.4-0.1c0.3,0,0.6,0,0.9,0V133.1z"/>
	<path class="st11" d="M48,127.3c-0.3,0.6-0.9,1.3-1.4,1.9h0c-0.2,0-0.5,0.1-0.7,0.1c-0.6,0.1-1.1,0.3-1.6,0.5
		c-0.1-1.2,0.5-3.5,1.6-4C47.2,125,48.6,126.1,48,127.3z"/>
	<path class="st10" d="M45.9,129.2v16c-0.5-0.1-1-0.2-1.5-0.4c0,0-0.1,0-0.1,0c-0.1,0-0.2-0.1-0.3-0.1v-14.9c0.1,0,0.2-0.1,0.2-0.1
		C44.8,129.5,45.3,129.4,45.9,129.2z"/>
</g>
<g>
	<path class="st33" d="M32.1,64C32.1,64,32.1,63.9,32.1,64L32.1,64c0.2,0.4-0.1,1.2-0.3,1.4"/>
	<path class="st9" d="M26.7,52.1v11.6c-0.2-0.1-0.3-0.1-0.5-0.2c0,0,0,0,0,0c-0.7-0.4-1.3-0.8-1.8-1.3v-8.5c0.1-0.2,0.3-0.3,0.5-0.4
		c0.4-0.4,0.9-0.7,1.4-0.9C26.4,52.2,26.5,52.1,26.7,52.1z"/>
	<path class="st10" d="M24.3,53.6v8.5c-0.8-0.8-1.4-1.8-1.6-2.9c-0.1-0.4-0.2-0.9-0.2-1.3c0-0.1,0-0.3,0-0.4v0
		C22.7,56,23.3,54.7,24.3,53.6z"/>
	<path class="st9" d="M35.2,56.6c0,0.7-0.6,1.3-1.3,1.3c-0.7,0-1.3-0.6-1.3-1.3c0-0.7,0.6-1.3,1.3-1.3
		C34.6,55.2,35.2,55.8,35.2,56.6z"/>
	<path class="st9" d="M35.2,56.6c0,0.7-0.6,1.3-1.3,1.3c-0.7,0-1.3-0.6-1.3-1.3c0-0.7,0.6-1.3,1.3-1.3
		C34.6,55.2,35.2,55.8,35.2,56.6z"/>
	<path class="st11" d="M32.8,53.6c-0.9,0-1.7,0.4-2.3,1c-0.5,0.6-0.8,1.3-0.8,2.1c0,0.8,0.3,1.6,0.8,2.1c0.6,0.6,1.4,1,2.3,1
		c1.7,0,3.1-1.4,3.1-3.1C35.9,55,34.5,53.6,32.8,53.6z M33.9,57.9c-0.7,0-1.3-0.6-1.3-1.3c0-0.7,0.6-1.3,1.3-1.3
		c0.7,0,1.3,0.6,1.3,1.3C35.2,57.3,34.6,57.9,33.9,57.9z"/>
	<path class="st9" d="M35.2,56.6c0,0.7-0.6,1.3-1.3,1.3c-0.7,0-1.3-0.6-1.3-1.3c0-0.7,0.6-1.3,1.3-1.3
		C34.6,55.2,35.2,55.8,35.2,56.6z"/>
	<path class="st9" d="M36.5,52c0,0.4-0.3,0.7-0.7,0.7c-0.4,0-0.7-0.3-0.7-0.7c0-0.4,0.3-0.7,0.7-0.7C36.2,51.3,36.5,51.6,36.5,52z"
		/>
	<line class="st12" x1="24.3" y1="62.4" x2="24.3" y2="62.1"/>
	<path class="st34" d="M31.8,51.7c0.9-1,2.2-1.8,3.4-1.6c1.4,0.3,0.9,1.3,0.7,1.7"/>
	<path class="st33" d="M33.2,63.4c0.2,0.4-0.1,1.3-0.3,1.4"/>
	<path class="st10" d="M37,57.9c0,2.6-1.7,4.8-4.1,5.8v0c-0.2,0.1-0.5,0.2-0.8,0.3h0c0,0,0,0,0,0c-0.5,0.2-1.1,0.3-1.6,0.3v-5.3
		c0.6,0.6,1.4,1,2.3,1c1.7,0,3.1-1.4,3.1-3.1c0-1.7-1.4-3.1-3.1-3.1c-0.9,0-1.7,0.4-2.3,1v-3.1c0.5,0,0.9,0.1,1.3,0.2
		c0.3,0.1,0.6,0.2,0.9,0.3h0C35.2,53,37,55.3,37,57.9z"/>
	<path class="st33" d="M25.7,64.4c-0.2-0.1-0.5-1-0.3-1.4c0,0,0,0,0,0"/>
	<path class="st33" d="M27.2,65.1c-0.2-0.1-0.4-0.9-0.3-1.3c0,0,0,0,0.1,0"/>
	<path class="st9" d="M22.7,59.2h-2.9c-0.4,0,1.7-1.8,2.8-1.8v0c0,0.1,0,0.3,0,0.4C22.5,58.3,22.6,58.8,22.7,59.2z"/>
	<path class="st11" d="M26.3,52.3c-0.5,0.3-1,0.6-1.4,0.9c-1-0.1-2-0.5-2.3-0.9c-0.5-0.7-0.2-1.5,0.5-1.8
		C23.8,50.3,26,51.2,26.3,52.3z"/>
	<path class="st9" d="M30.5,54.6c-0.5,0.6-0.8,1.3-0.8,2.1c0,0.8,0.3,1.6,0.8,2.1v5.3c-0.2,0-0.5,0-0.7,0c-0.6,0-1.1-0.1-1.6-0.2
		V51.6c0.2,0,0.4-0.1,0.5-0.1h0c0.4,0,0.7-0.1,1.1-0.1c0.2,0,0.5,0,0.7,0V54.6z"/>
	<path class="st11" d="M29.8,50.1c-0.2,0.5-0.7,1-1.1,1.4h0c-0.2,0-0.4,0.1-0.5,0.1c-0.4,0.1-0.9,0.2-1.3,0.4
		c-0.1-1,0.4-2.7,1.3-3.2C29.1,48.4,30.2,49.1,29.8,50.1z"/>
	<path class="st10" d="M28.1,51.6v12.5c-0.4-0.1-0.8-0.2-1.2-0.3c0,0,0,0-0.1,0c-0.1,0-0.2-0.1-0.2-0.1V52.1c0.1,0,0.1-0.1,0.2-0.1
		C27.3,51.8,27.7,51.7,28.1,51.6z"/>
</g>
<path class="st5" d="M272.6,210c0.7-8.9,3.5-32.7,6.3-41.6c2.8-8.9,11.5-26.3,14.3-29.4s10.1-5.2,13.2,2.3
	c3.1,7.5,5.2,19.4,4.5,35.1s-4.2,26.5-5.9,33.5S272.6,210,272.6,210z"/>
<g>
	<path class="st27" d="M248,206.3c0.7-2-0.9-5.7-2.6-7.4c-1.7-1.7-0.8-3.3,1.2-3.1c2,0.1,19.9,3.8,22.6,3.9s-5.9-0.2-9.6,2.5
		C255.8,204.8,248,206.3,248,206.3z"/>
	<path class="st27" d="M246.7,192.4c-1.9-1.3,3.6-4.6,3-6.6c-0.5-2,2-3.5,3.9-4.4s9.2,6.6,13.2,8.2c4.1,1.6,5.6,10.5,2.3,10.1
		C265.9,199.2,254,197.6,246.7,192.4z"/>
	<path class="st27" d="M270.8,188.3c-0.2-4.1,1.9-9.5,9-13.7c2-1.1,3.5-1.7,4.9-2.2c0.3,2.6-2.3,13.8-7.8,16.3
		C271.4,191.1,270.8,188.3,270.8,188.3z"/>
	<path class="st27" d="M276.6,196c4.1-1.5,10.6-4.8,12.7-10.9c0.7-2-1.2-0.7-1.8-1.6c-0.6-0.9-1.3-1.4-1.4-2.3s-2-0.9-2.6,0.9
		c-0.5,1.8-4.9,4.5-6.6,6.5C275.2,190.7,276.6,196,276.6,196z"/>
	<path class="st27" d="M266.9,189.5c-4.5-2.3-7.4-9.8-7.6-12.1c-0.2-2.3,0-3.8,0.3-4.4c0.3-0.6,1,2.2,2.7,2.3c1.7,0.1,4.2-0.3,5.6-1
		c1.3-0.7,3.5,1.3,3.6,3.2c0.1,1.8,0.3,9.8-0.6,10.8C269.9,189.3,268,190.1,266.9,189.5z"/>
	<ellipse transform="matrix(0.9734 -0.229 0.229 0.9734 -36.4424 67.146)" class="st19" cx="271.1" cy="190.6" rx="6.3" ry="2.7"/>
	<path class="st28" d="M269.2,199.6c-4.3-1.7-10.1-7.5-11.1-9.7c-1-2.2,1.5,0,3.3,0.8c1.9,0.8,14.1,1.1,19.9-1.8
		c-3.6,5.4-6.7,10.8-9.4,10.8S269.2,199.6,269.2,199.6z"/>
</g>
<g>
	<path class="st18" d="M315.2,188c3.2-2.2,8.6-9.5,9.9-14c1.2-4.5,2.4-9.3,2.1-11.5c-0.3-2.2-3-4-4.8-3c-1.8,1-4.1,1.5-4.7,0.8
		c-0.6-0.7-1.8-0.6-1.9,1.4c-0.1,2-3.9,12.7-4.7,17.2c-0.8,4-1.8,7.5-1.3,7.9C310.2,187.3,315.2,188,315.2,188z"/>
	<path class="st18" d="M309.5,185.8c1-3.1,3.4-11.3,3.5-15.6c0.1-4.3,0.1-6.6,0-8.2c-0.1-1.5-1.1-1.9-3-1.7s-4.5-2.5-5.4-3.5
		s-2.3-2.3-3.8-2.8s-3.9-0.1-4.6,2.6c-0.7,2.7-2.3,9.5,0,14.2c2.3,4.7,7.3,14.6,8.8,15.6C306.5,187.6,309,187.5,309.5,185.8z"/>
	<path class="st18" d="M337.5,169c-0.2-1.3-2-2.3-3.8-1.8c-1.8,0.5-7.8,4.4-8.7,6.8s-8.7,9.4-9,14.5c5.9,2.1,9.9,1.3,14.6-1.3
		c4.8-2.6,5.7-8,5.7-9.4C336.4,176.4,337.7,170.4,337.5,169z"/>
	<path class="st18" d="M298.1,189.9c-3.3-1.3-12.2-10.3-13.2-12.8c-1.1-2.5-2.7-7-2.3-9.9c0.4-3,5-3.7,7.7-2.8s5.3,1.8,7,5.8
		c1.7,4,6.3,14.5,7.5,15.9C305.8,187.6,298.1,189.9,298.1,189.9z"/>
	<ellipse transform="matrix(0.1981 -0.9802 0.9802 0.1981 66.0179 459.6707)" class="st19" cx="314" cy="189.5" rx="3" ry="12.7"/>
	<path class="st18" d="M348.3,183c-1.3,3.8-10.2,14-15.8,15.6c-5.6,1.6-10.1,1.2-12.4,0c-2.4-1.2,0.8-7.8,3.2-9.1
		c2.5-1.3,12.5-9.5,16.5-9.5c4,0,4.3,1,5.5,1.7S346.9,183.5,348.3,183z"/>
	<path class="st20" d="M325,191.1c-1.4,2.9-8,14.8-16.7,12.7c-8.7-2.1-17.7-25.2-18.1-27.2c-0.3-2,1.8-2,2.8,0c1,2,8.9,9.6,15.3,13
		C314.7,192.9,319.9,192.3,325,191.1z"/>
</g>
<g>
	<path class="st29" d="M279.3,144.3c0-3,2.4-5.4,5.4-5.4c3,0,5.4,2.4,5.4,5.4c0,3-2.5,5.4-5.5,5.4
		C281.7,149.7,279.3,147.3,279.3,144.3z"/>
	<path class="st30" d="M290,145.5c0.2-0.8,0.2-1.5,0-2.3c0.4-0.1,0.7-0.1,1-0.2c1.1-0.2,2.1-0.5,3.2-0.7c0.3-0.1,0.6-0.1,0.9,0
		c0.8,0.1,1.4,0.8,1.5,1.6c0.1,0.7,0,1.3-0.4,1.8c-0.4,0.6-1,0.8-1.7,0.7c-1.1-0.2-2.2-0.4-3.3-0.7
		C290.9,145.7,290.5,145.6,290,145.5z"/>
	<path class="st30" d="M279.5,143.2c-0.2,0.8-0.2,1.5,0,2.3c-0.4,0.1-0.7,0.1-1.1,0.2c-1,0.2-2.1,0.5-3.1,0.7
		c-0.4,0.1-0.7,0.1-1.1,0c-0.7-0.2-1-0.7-1.2-1.3c-0.2-0.7-0.1-1.5,0.4-2.1c0.4-0.5,1-0.8,1.7-0.6c1.1,0.2,2.2,0.4,3.2,0.7
		C278.6,143.1,279,143.1,279.5,143.2z"/>
	<path class="st30" d="M279.6,146c0.2,0.7,0.6,1.4,1.1,2c-0.4,0.4-0.8,0.7-1.2,1c-0.7,0.6-1.4,1.2-2.1,1.9c-0.3,0.3-0.7,0.5-1.1,0.5
		c-1,0-1.8-0.7-2.1-1.6c-0.2-0.8,0-1.9,1.1-2.3c1.1-0.4,2.1-0.7,3.2-1.1C278.9,146.3,279.2,146.1,279.6,146z"/>
	<path class="st30" d="M289.9,142.7c-0.2-0.7-0.6-1.4-1.1-2c0.7-0.6,1.4-1.3,2.1-1.9c0.4-0.4,0.8-0.7,1.2-1.1c0.9-0.8,2-0.5,2.7,0.2
		c0.5,0.6,0.7,1.3,0.6,2c-0.1,0.6-0.5,1-1,1.2c-0.7,0.3-1.4,0.5-2.1,0.7c-0.4,0.1-0.8,0.2-1.2,0.4
		C290.7,142.4,290.3,142.6,289.9,142.7z"/>
	<path class="st30" d="M288.8,148c0.2-0.3,0.5-0.6,0.6-1c0.2-0.3,0.3-0.7,0.5-1c0.2,0.1,0.4,0.1,0.5,0.2c1.1,0.4,2.3,0.7,3.4,1.1
		c0.1,0,0.2,0.1,0.3,0.1c1.1,0.4,1.4,1.4,1.1,2.3c-0.2,1-1.2,1.7-2.1,1.7c-0.4,0-0.7-0.1-0.9-0.4c-0.7-0.6-1.4-1.2-2.1-1.8
		C289.7,148.8,289.2,148.4,288.8,148z"/>
	<path class="st30" d="M281.1,140.4c-1-1.1-2-2.1-2.9-3.2c-1-1.1-0.6-2.6,0.8-3.2c0.8-0.4,1.8-0.2,2.3,0.4c0.2,0.3,0.4,0.6,0.5,0.9
		c0.4,1.1,0.7,2.3,1.1,3.4c0.1,0.2,0.1,0.4,0.2,0.6C282.4,139.5,281.7,139.8,281.1,140.4z"/>
	<path class="st30" d="M279.6,142.7c-0.6-0.2-1.2-0.4-1.8-0.6c-0.8-0.3-1.6-0.5-2.4-0.8c-0.6-0.2-1-0.6-1.2-1.2
		c-0.4-1.4,0.7-2.9,2.2-2.8c0.3,0,0.7,0.1,0.9,0.4c0.7,0.6,1.4,1.3,2.2,1.9c0.4,0.4,0.9,0.8,1.3,1.2
		C280.2,141.3,279.9,142,279.6,142.7z"/>
	<path class="st30" d="M281.1,148.4c0.6,0.5,1.2,0.9,1.9,1.1c0,0,0,0.1,0,0.1c-0.4,1.3-0.9,2.6-1.3,3.9c0,0.1-0.1,0.1-0.1,0.2
		c-0.5,1.2-1.5,1.6-2.7,1.1c-0.8-0.4-1.3-1-1.3-2c0-0.4,0.2-0.7,0.4-1c0.5-0.5,0.9-1.1,1.4-1.6C280,149.6,280.6,149,281.1,148.4z"/>
	<path class="st30" d="M288.4,140.4c-0.6-0.5-1.2-0.9-1.9-1.1c0,0,0,0,0-0.1c0.4-1.3,0.9-2.7,1.3-4c0.1-0.3,0.2-0.6,0.4-0.8
		c0.5-0.6,1.3-0.8,2.1-0.5c0.8,0.3,1.4,0.9,1.5,1.8c0.1,0.4,0,0.9-0.3,1.2c-0.6,0.7-1.1,1.3-1.7,2
		C289.3,139.3,288.8,139.8,288.4,140.4z"/>
	<path class="st30" d="M286.4,149.5c0.7-0.2,1.4-0.6,2-1.1c1,1.1,1.9,2.1,2.8,3.2c1.1,1.2,0.6,2.9-1,3.3c-0.9,0.3-2,0.1-2.4-1.1
		c-0.4-1-0.7-2.1-1-3.1C286.7,150.3,286.5,149.9,286.4,149.5z"/>
	<path class="st30" d="M285.9,139.1c-0.4,0-0.8-0.1-1.1-0.1c-0.4,0-0.8,0.1-1.1,0.1c-0.1-0.5-0.2-1-0.3-1.5
		c-0.2-0.9-0.4-1.8-0.6-2.8c-0.3-1.4,0.8-2.6,2.3-2.4c0.4,0.1,0.7,0.2,1,0.4c0.7,0.5,0.9,1.1,0.7,1.9c-0.3,1.3-0.5,2.6-0.8,3.8
		C286,138.7,285.9,138.9,285.9,139.1z"/>
	<path class="st30" d="M285.9,149.6c0.2,1,0.4,1.9,0.6,2.9c0.1,0.5,0.2,1,0.3,1.5c0.2,1.1-0.5,2-1.6,2.2c-0.7,0.1-1.4,0-1.9-0.5
		c-0.6-0.5-0.7-1.1-0.5-1.8c0.2-1.2,0.5-2.4,0.8-3.6c0-0.2,0.1-0.4,0.1-0.7C284.4,149.8,285.1,149.8,285.9,149.6z"/>
</g>
</svg>
