<?xml version="1.0" encoding="utf-8"?>
<!-- Generator: Adobe Illustrator 22.1.0, SVG Export Plug-In . SVG Version: 6.00 Build 0)  -->
<svg version="1.1" id="Calque_2_1_" xmlns="http://www.w3.org/2000/svg" xmlns:xlink="http://www.w3.org/1999/xlink" x="0px"
	 y="0px" viewBox="0 0 311.8 200.3" style="enable-background:new 0 0 311.8 200.3;" xml:space="preserve">
<style type="text/css">
	.st0{fill:none;stroke:#241628;stroke-width:2.3439;stroke-linecap:round;stroke-linejoin:round;stroke-miterlimit:10;}
	.st1{fill:#241628;}
	.st2{fill:#F1BB04;}
	.st3{fill:#FFFFFF;}
	.st4{fill:none;}
	.st5{fill:none;stroke:#241628;stroke-width:2.8126;stroke-linecap:round;stroke-linejoin:round;stroke-miterlimit:10;}
	.st6{fill:none;stroke:#241628;stroke-width:0.7544;stroke-linecap:round;stroke-linejoin:round;stroke-miterlimit:10;}
	.st7{fill:none;stroke:#241628;stroke-width:0.9053;stroke-linecap:round;stroke-linejoin:round;stroke-miterlimit:10;}
	.st8{fill:#F7B79F;}
	.st9{fill:#FDE093;}
	.st10{fill:#F5A883;}
	.st11{fill:none;stroke:#241628;stroke-width:0.5143;stroke-linecap:round;stroke-linejoin:round;stroke-miterlimit:10;}
	.st12{fill:none;stroke:#241628;stroke-width:0.6171;stroke-linecap:round;stroke-linejoin:round;stroke-miterlimit:10;}
	.st13{fill:none;stroke:#241628;stroke-width:0.4012;stroke-linecap:round;stroke-linejoin:round;stroke-miterlimit:10;}
	.st14{fill:none;stroke:#241628;stroke-width:0.4814;stroke-linecap:round;stroke-linejoin:round;stroke-miterlimit:10;}
	.st15{fill:none;stroke:#241628;stroke-width:0.3012;stroke-linecap:round;stroke-linejoin:round;stroke-miterlimit:10;}
	.st16{fill:none;stroke:#241628;stroke-width:0.3614;stroke-linecap:round;stroke-linejoin:round;stroke-miterlimit:10;}
	.st17{fill:#D4DBF0;}
	.st18{fill:#D5B1D4;}
	.st19{fill:none;stroke:#CDA7C5;stroke-width:4.4741;stroke-linecap:round;stroke-linejoin:round;stroke-miterlimit:10;}
	.st20{fill:#8D8CC3;}
	.st21{fill:none;stroke:#816B88;stroke-width:4.1817;stroke-linecap:round;stroke-linejoin:round;stroke-miterlimit:10;}
	.st22{fill:#E5D0E7;}
	.st23{fill:#F5EEE4;}
	.st24{fill:none;stroke:#F5EEE4;stroke-width:1.4612;stroke-miterlimit:10;}
	.st25{fill:none;stroke:#241628;stroke-width:1.6634;stroke-linecap:round;stroke-linejoin:round;stroke-miterlimit:10;}
	.st26{fill:none;stroke:#241628;stroke-width:1.996;stroke-linecap:round;stroke-linejoin:round;stroke-miterlimit:10;}
	.st27{fill:none;stroke:#241628;stroke-width:0.3601;stroke-linecap:round;stroke-linejoin:round;stroke-miterlimit:10;}
	.st28{fill:none;stroke:#241628;stroke-width:0.4322;stroke-linecap:round;stroke-linejoin:round;stroke-miterlimit:10;}
	.st29{fill:#CFDCF2;}
	.st30{fill:none;stroke:#CFDCF2;stroke-width:1.0668;stroke-miterlimit:10;}
	.st31{fill:none;stroke:#8D8CC3;stroke-width:1.3524;stroke-miterlimit:10;}
	.st32{fill:none;stroke:#8D8CC3;stroke-width:0.6762;stroke-miterlimit:10;}
	.st33{fill:none;stroke:#8D8CC3;stroke-width:1.0143;stroke-miterlimit:10;}
	.st34{fill:none;stroke:#816B88;stroke-width:3.9534;stroke-linecap:round;stroke-linejoin:round;stroke-miterlimit:10;}
	.st35{fill:#EE8564;}
	.st36{fill:#D25D4A;}
	.st37{fill:#FAD835;}
	.st38{fill:#F7F2ED;}
</style>
<g>
	<path class="st0" d="M128.2,114.5C128.2,114.5,128.1,114.5,128.2,114.5L128.2,114.5c-1.1,2.3,0.4,7.2,1.6,8"/>
	<path class="st1" d="M159.8,45.2V113c1-0.4,2-0.8,2.8-1.3l0,0c4.1-2.1,7.8-4.7,10.7-7.8V54.2c-0.8-0.8-1.8-1.7-2.7-2.5
		c-2.5-2.1-5.4-3.9-8.5-5.5C161.4,45.9,160.6,45.5,159.8,45.2z"/>
	<path class="st2" d="M173.4,54.2v49.5c4.7-4.7,8-10.6,9.6-16.9c0.6-2.5,1-5.2,1-7.9c0-0.8,0-1.6-0.1-2.4l0,0
		C183.3,68,179.5,60.3,173.4,54.2z"/>
	<path class="st1" d="M109.9,71.3c0,4.2,3.5,7.8,7.8,7.8s7.8-3.5,7.8-7.8c0-4.2-3.5-7.8-7.8-7.8C113.3,63.6,109.9,67,109.9,71.3z"/>
	<path class="st1" d="M109.9,71.3c0,4.2,3.5,7.8,7.8,7.8s7.8-3.5,7.8-7.8c0-4.2-3.5-7.8-7.8-7.8C113.3,63.6,109.9,67,109.9,71.3z"/>
	<path class="st3" d="M105.9,72.5c0,10.1,8.2,18.3,18.3,18.3c5.2,0,10-2.3,13.4-5.8c3.1-3.2,4.9-7.6,4.9-12.5
		c0-4.8-1.8-9.3-4.9-12.5c-3.4-3.5-8-5.8-13.4-5.8C114.1,54.2,105.9,62.5,105.9,72.5z M109.9,71.3c0-4.2,3.5-7.8,7.8-7.8
		s7.8,3.5,7.8,7.8c0,4.2-3.5,7.8-7.8,7.8C113.3,79,109.9,75.6,109.9,71.3z"/>
	<path class="st1" d="M109.9,71.3c0,4.2,3.5,7.8,7.8,7.8s7.8-3.5,7.8-7.8c0-4.2-3.5-7.8-7.8-7.8C113.3,63.6,109.9,67,109.9,71.3z"/>
	<path class="st1" d="M102.4,44.8c0,2.1,1.7,3.8,3.8,3.8s3.8-1.7,3.8-3.8c0-2.1-1.7-3.8-3.8-3.8C104.1,40.8,102.4,42.7,102.4,44.8z"
		/>
	<path class="st5" d="M129.9,43.1c-5.1-5.9-13-10.7-20-9.3c-7.9,1.6-5.5,7.9-3.9,10"/>
	<path class="st0" d="M121.6,111.4c-1.3,2.3,0.4,7.3,1.7,8.2"/>
	<path class="st2" d="M99.4,79c0,14.9,9.9,27.9,24.2,33.8l0,0c1.4,0.6,2.8,1.1,4.4,1.6l0,0h0.1c3,1,6.2,1.6,9.4,1.8V85.1
		c-3.4,3.5-8,5.8-13.4,5.8c-10.1,0-18.3-8.2-18.3-18.3s8.2-18.3,18.3-18.3c5.2,0,10,2.3,13.4,5.8V41.7c-2.7,0.3-5.2,0.7-7.8,1.3
		c-1.8,0.4-3.5,1-5.2,1.7l0,0C109.9,50.5,99.4,63.6,99.4,79z"/>
	<path class="st0" d="M165.5,116.9c1.1-0.8,2.8-5.9,1.7-8.2l0,0"/>
	<path class="st0" d="M156.5,121.1c1.1-0.8,2.5-5.2,1.8-7.6c-0.1,0-0.3,0.1-0.4,0.1"/>
	<path class="st1" d="M183,86.9h16.9c2.3,0-10.1-10.3-16.1-10.3l0,0c0,0.8,0.1,1.6,0.1,2.4C184,81.7,183.7,84.4,183,86.9z"/>
	<path class="st3" d="M162.3,46.2c3.1,1.6,5.9,3.4,8.5,5.5c6.1-0.7,11.7-2.8,13.2-5.1c3-4.1,1.3-9-3.1-10.4
		C176.7,35,164,39.8,162.3,46.2z"/>
	<path class="st1" d="M137.5,60c3.1,3.2,4.9,7.6,4.9,12.5c0,4.8-1.8,9.3-4.9,12.5v31.3c1.4,0.1,2.8,0.1,4.2,0.1c3.2,0,6.5-0.3,9.4-1
		v-73c-1-0.3-2.1-0.4-3.1-0.6l0,0c-2.1-0.3-4.2-0.4-6.3-0.4c-1.4,0-2.8,0-4.2,0.1V60z"/>
	<path class="st3" d="M141.7,33.5c1.3,2.7,3.9,5.9,6.3,8.5l0,0c1.1,0.1,2.1,0.3,3.1,0.6c2.5,0.6,5.1,1.3,7.5,2.3
		c0.4-5.6-2.4-15.8-7.5-18.5C145.5,23.3,139,28,141.7,33.5z"/>
	<path class="st2" d="M151.2,42.5v73c2.4-0.4,4.7-1.1,6.8-2c0.1,0,0.3-0.1,0.4-0.1c0.4-0.1,1-0.4,1.4-0.6V45.2
		c-0.4-0.1-0.7-0.3-1.1-0.4C156.2,43.8,153.8,43.1,151.2,42.5z"/>
</g>
<g>
	<path class="st6" d="M257.6,122.4L257.6,122.4L257.6,122.4c-0.6,0.6-0.5,2.2-0.3,2.6"/>
	<path class="st1" d="M273.9,104l-6.4,20.9c0.3,0,0.7-0.1,1-0.1l0,0c1.4-0.2,2.8-0.7,4-1.4l4.7-15.2c-0.2-0.4-0.4-0.7-0.6-1
		c-0.6-0.9-1.3-1.7-2.1-2.5C274.3,104.4,274.1,104.2,273.9,104z"/>
	<path class="st2" d="M277.2,108.1l-4.7,15.2c1.9-1,3.5-2.5,4.6-4.3c0.4-0.7,0.8-1.5,1-2.3c0.1-0.2,0.1-0.5,0.2-0.7l0,0
		C278.9,113.3,278.5,110.5,277.2,108.1z"/>
	<path class="st1" d="M256,107.4c-0.4,1.3,0.3,2.7,1.6,3.1c1.3,0.4,2.7-0.3,3.1-1.6c0.4-1.3-0.3-2.7-1.6-3.1
		C257.8,105.3,256.4,106,256,107.4z"/>
	<path class="st1" d="M256,107.4c-0.4,1.3,0.3,2.7,1.6,3.1c1.3,0.4,2.7-0.3,3.1-1.6c0.4-1.3-0.3-2.7-1.6-3.1
		C257.8,105.3,256.4,106,256,107.4z"/>
	<path class="st3" d="M254.7,107.4c-1,3.1,0.8,6.4,3.9,7.4c1.6,0.5,3.3,0.3,4.6-0.5c1.3-0.7,2.2-1.9,2.7-3.4s0.3-3-0.3-4.3
		c-0.7-1.4-1.9-2.5-3.6-3C259,102.5,255.7,104.3,254.7,107.4z M256,107.4c0.4-1.3,1.8-2,3.1-1.6c1.3,0.4,2.1,1.8,1.6,3.1
		c-0.4,1.3-1.8,2.1-3.1,1.6C256.4,110.1,255.6,108.7,256,107.4z"/>
	<path class="st1" d="M256,107.4c-0.4,1.3,0.3,2.7,1.6,3.1c1.3,0.4,2.7-0.3,3.1-1.6c0.4-1.3-0.3-2.7-1.6-3.1
		C257.8,105.3,256.4,106,256,107.4z"/>
	<path class="st1" d="M256.2,98.5c-0.2,0.7,0.2,1.4,0.8,1.6c0.7,0.2,1.4-0.2,1.6-0.8c0.2-0.7-0.2-1.3-0.8-1.6
		C257.1,97.4,256.4,97.8,256.2,98.5z"/>
	<line class="st4" x1="272.4" y1="123.9" x2="272.5" y2="123.3"/>
	<path class="st7" d="M264.9,100.5c-1-2.3-3-4.5-5.3-4.8c-2.6-0.3-2.4,1.9-2.1,2.7"/>
	<path class="st6" d="M255.9,120.8c-0.6,0.6-0.6,2.3-0.3,2.7"/>
	<path class="st2" d="M252.1,108.7c-1.4,4.6,0.4,9.5,4.2,12.7l0,0c0.4,0.3,0.8,0.6,1.2,0.9l0,0l0,0c0.8,0.6,1.7,1,2.7,1.4l2.9-9.6
		c-1.4,0.8-3,1-4.6,0.5c-3.1-1-4.9-4.2-3.9-7.4c1-3.1,4.2-4.9,7.4-3.9c1.6,0.5,2.9,1.6,3.6,3l1.7-5.6c-0.8-0.2-1.7-0.3-2.5-0.3
		c-0.6,0-1.2,0-1.8,0l0,0C258,101,253.6,104,252.1,108.7z"/>
	<path class="st6" d="M268.9,126.7c0.4-0.2,1.4-1.6,1.3-2.4l0,0"/>
	<path class="st6" d="M265.7,127.1c0.4-0.1,1.3-1.4,1.3-2.2h-0.1"/>
	<path class="st1" d="M277.1,119l5.2,1.6c0.7,0.2-2.1-4.1-4-4.7l0,0c-0.1,0.2-0.1,0.5-0.2,0.7C277.9,117.6,277.5,118.3,277.1,119z"
		/>
	<path class="st3" d="M274.5,104.6c0.8,0.8,1.5,1.6,2.1,2.5c1.9,0.3,3.9,0.2,4.6-0.3c1.3-1,1.3-2.6,0-3.5
		C280,102.5,275.7,102.8,274.5,104.6z"/>
	<path class="st1" d="M265.6,106.5c0.6,1.3,0.8,2.8,0.3,4.3s-1.5,2.7-2.7,3.4l-2.9,9.6c0.4,0.2,0.8,0.3,1.3,0.4c1,0.3,2,0.5,3,0.6
		l6.9-22.5c-0.3-0.2-0.6-0.3-0.9-0.5l0,0c-0.6-0.3-1.3-0.5-1.9-0.7c-0.4-0.1-0.9-0.2-1.3-0.3L265.6,106.5z"/>
	<path class="st3" d="M269.4,98.7c0.2,1,0.7,2.2,1.2,3.2l0,0c0.3,0.1,0.6,0.3,0.9,0.5c0.7,0.4,1.4,0.9,2.1,1.4
		c0.7-1.7,0.7-5.1-0.6-6.4C271.5,96,269.1,96.8,269.4,98.7z"/>
	<path class="st2" d="M271.5,102.4l-6.9,22.5c0.8,0.1,1.5,0.1,2.3,0h0.1c0.2,0,0.3,0,0.5,0l6.4-20.9c-0.1-0.1-0.2-0.2-0.3-0.2
		C272.9,103.3,272.2,102.8,271.5,102.4z"/>
</g>
<g>
	<path class="st6" d="M161.5,164.4L161.5,164.4L161.5,164.4c-0.5,0.7,0,2.3,0.2,2.6"/>
	<path class="st1" d="M173.6,143l-1.9,21.8c0.3-0.1,0.7-0.2,1-0.3l0,0c1.3-0.5,2.6-1.3,3.6-2.2l1.4-15.8c-0.3-0.3-0.5-0.6-0.8-0.9
		c-0.8-0.8-1.6-1.4-2.6-2C174.1,143.3,173.9,143.1,173.6,143z"/>
	<path class="st2" d="M177.7,146.3l-1.4,15.8c1.7-1.4,2.9-3.2,3.6-5.2c0.2-0.8,0.5-1.6,0.5-2.5c0.1-0.2,0-0.5,0.1-0.7l0,0
		C180.5,151.1,179.5,148.4,177.7,146.3z"/>
	<path class="st1" d="M156.8,150c-0.1,1.4,0.9,2.6,2.2,2.7c1.4,0.1,2.6-0.9,2.7-2.2c0.1-1.4-0.9-2.6-2.2-2.7
		C158.2,147.6,156.9,148.6,156.8,150z"/>
	<path class="st1" d="M156.8,150c-0.1,1.4,0.9,2.6,2.2,2.7c1.4,0.1,2.6-0.9,2.7-2.2c0.1-1.4-0.9-2.6-2.2-2.7
		C158.2,147.6,156.9,148.6,156.8,150z"/>
	<path class="st3" d="M155.6,150.3c-0.3,3.2,2.1,6.1,5.3,6.4c1.7,0.2,3.3-0.4,4.4-1.4c1.1-1,1.8-2.3,1.9-3.9s-0.3-3-1.2-4.1
		c-1-1.2-2.4-2.1-4.1-2.2C158.8,144.6,155.9,147.1,155.6,150.3z M156.8,150c0.1-1.4,1.3-2.3,2.7-2.2s2.4,1.3,2.2,2.7
		c-0.1,1.4-1.3,2.4-2.7,2.2C157.8,152.6,156.7,151.4,156.8,150z"/>
	<path class="st1" d="M156.8,150c-0.1,1.4,0.9,2.6,2.2,2.7c1.4,0.1,2.6-0.9,2.7-2.2c0.1-1.4-0.9-2.6-2.2-2.7
		C158.2,147.6,156.9,148.6,156.8,150z"/>
	<path class="st1" d="M155.2,141.3c-0.1,0.7,0.5,1.3,1.1,1.4c0.7,0.1,1.3-0.5,1.4-1.1c0.1-0.7-0.5-1.2-1.1-1.4
		C155.8,140,155.2,140.6,155.2,141.3z"/>
	<line class="st4" x1="176.3" y1="162.8" x2="176.3" y2="162.2"/>
	<path class="st7" d="M164.1,141.4c-1.5-2-3.9-3.8-6.2-3.6c-2.6,0.2-2,2.4-1.5,3.1"/>
	<path class="st6" d="M159.5,163.2c-0.5,0.7-0.1,2.4,0.3,2.7"/>
	<path class="st2" d="M153.3,152.1c-0.4,4.8,2.4,9.2,6.7,11.6l0,0c0.5,0.2,0.9,0.4,1.4,0.6l0,0l0,0c0.9,0.4,1.9,0.6,2.9,0.8l0.8-10
		c-1.2,1.1-2.7,1.6-4.4,1.4c-3.2-0.3-5.7-3.1-5.3-6.4c0.3-3.2,3.1-5.7,6.4-5.3c1.7,0.2,3.2,1,4.1,2.2l0.5-5.8
		c-0.8,0-1.7,0.1-2.5,0.2c-0.6,0.1-1.2,0.2-1.8,0.4l0,0C157.5,143.3,153.8,147.2,153.3,152.1z"/>
	<path class="st6" d="M173.5,166.2c0.3-0.3,1-1.9,0.8-2.6l0,0"/>
	<path class="st6" d="M170.4,167.3c0.4-0.2,1-1.6,0.8-2.4l-0.1,0"/>
	<path class="st1" d="M179.9,157l5.4,0.5c0.7,0.1-2.9-3.6-4.9-3.8l0,0c-0.1,0.2,0,0.5-0.1,0.7C180.4,155.5,180.1,156.2,179.9,157z"
		/>
	<path class="st3" d="M174.4,143.5c0.9,0.6,1.8,1.3,2.6,2c1.9-0.1,3.9-0.6,4.4-1.2c1.1-1.2,0.7-2.8-0.7-3.4
		C179.3,140.3,175.2,141.4,174.4,143.5z"/>
	<path class="st1" d="M166,147.2c0.9,1.1,1.4,2.6,1.2,4.1s-0.9,3-1.9,3.9l-0.8,10c0.4,0.1,0.8,0.1,1.4,0.1c1,0.1,2.1,0.1,3.1,0
		l2.1-23.4c-0.3-0.1-0.6-0.2-1-0.3l0,0c-0.6-0.2-1.4-0.2-2-0.3c-0.4,0-0.9,0-1.3,0L166,147.2z"/>
	<path class="st3" d="M168.1,138.7c0.4,0.9,1.1,2,1.8,2.9l0,0c0.3,0,0.6,0.2,1,0.3c0.8,0.2,1.6,0.6,2.3,0.9c0.3-1.8-0.4-5.1-1.9-6.1
		C169.6,135.7,167.5,136.9,168.1,138.7z"/>
	<path class="st2" d="M171,141.9l-2.1,23.4c0.8-0.1,1.5-0.2,2.3-0.5l0.1,0c0.2,0,0.3-0.1,0.5-0.1l1.9-21.8c-0.1-0.1-0.2-0.2-0.3-0.1
		C172.5,142.5,171.7,142.2,171,141.9z"/>
</g>
<g>
	<path class="st11" d="M72.2,156.8L72.2,156.8L72.2,156.8c0.3,0.5-0.1,1.6-0.4,1.8"/>
	<path class="st1" d="M65.2,141.6v14.9c-0.2-0.1-0.4-0.2-0.6-0.3l0,0c-0.9-0.5-1.7-1-2.4-1.7v-10.9c0.2-0.2,0.4-0.4,0.6-0.5
		c0.6-0.5,1.2-0.9,1.9-1.2C64.9,141.8,65,141.7,65.2,141.6z"/>
	<path class="st2" d="M62.2,143.6v10.9c-1-1-1.8-2.3-2.1-3.7c-0.1-0.6-0.2-1.1-0.2-1.7c0-0.2,0-0.4,0-0.5l0,0
		C60.1,146.6,60.9,144.9,62.2,143.6z"/>
	<path class="st1" d="M76.2,147.4c0,0.9-0.8,1.7-1.7,1.7s-1.7-0.8-1.7-1.7s0.8-1.7,1.7-1.7C75.4,145.7,76.2,146.4,76.2,147.4z"/>
	<path class="st1" d="M76.2,147.4c0,0.9-0.8,1.7-1.7,1.7s-1.7-0.8-1.7-1.7s0.8-1.7,1.7-1.7C75.4,145.7,76.2,146.4,76.2,147.4z"/>
	<path class="st3" d="M73,143.6c-1.2,0-2.2,0.5-2.9,1.3c-0.7,0.7-1.1,1.7-1.1,2.7c0,1.1,0.4,2,1.1,2.7c0.7,0.8,1.8,1.3,2.9,1.3
		c2.2,0,4-1.8,4-4S75.2,143.6,73,143.6z M74.5,149.1c-0.9,0-1.7-0.8-1.7-1.7s0.8-1.7,1.7-1.7s1.7,0.8,1.7,1.7S75.4,149.1,74.5,149.1
		z"/>
	<path class="st1" d="M76.2,147.4c0,0.9-0.8,1.7-1.7,1.7s-1.7-0.8-1.7-1.7s0.8-1.7,1.7-1.7C75.4,145.7,76.2,146.4,76.2,147.4z"/>
	<path class="st1" d="M77.8,141.5c0,0.5-0.4,0.8-0.8,0.8c-0.5,0-0.8-0.4-0.8-0.8c0-0.5,0.4-0.8,0.8-0.8
		C77.5,140.7,77.8,141.1,77.8,141.5z"/>
	<path class="st12" d="M71.8,141.2c1.1-1.3,2.8-2.3,4.4-2c1.7,0.3,1.2,1.7,0.9,2.2"/>
	<path class="st11" d="M73.6,156.2c0.3,0.5-0.1,1.6-0.4,1.8"/>
	<path class="st2" d="M78.5,149.1c0,3.3-2.2,6.1-5.3,7.4l0,0c-0.3,0.1-0.6,0.2-1,0.3l0,0l0,0c-0.7,0.2-1.3,0.3-2.1,0.4v-6.9
		c0.7,0.8,1.8,1.3,2.9,1.3c2.2,0,4-1.8,4-4s-1.8-4-4-4c-1.2,0-2.2,0.5-2.9,1.3v-4c0.6,0.1,1.1,0.2,1.7,0.3c0.4,0.1,0.8,0.2,1.1,0.4
		l0,0C76.2,142.8,78.5,145.7,78.5,149.1z"/>
	<path class="st11" d="M64,157.4c-0.3-0.2-0.6-1.3-0.4-1.8l0,0"/>
	<path class="st11" d="M65.9,158.3c-0.2-0.2-0.6-1.1-0.4-1.7h0.1"/>
	<path class="st1" d="M60.1,150.8h-3.7c-0.5,0,2.2-2.2,3.5-2.2l0,0c0,0.2,0,0.3,0,0.5C59.9,149.6,60,150.2,60.1,150.8z"/>
	<path class="st3" d="M64.7,141.9c-0.7,0.3-1.3,0.7-1.9,1.2c-1.3-0.2-2.6-0.6-2.9-1.1c-0.6-0.9-0.3-2,0.7-2.3
		C61.5,139.4,64.3,140.5,64.7,141.9z"/>
	<path class="st1" d="M70.1,144.9c-0.7,0.7-1.1,1.7-1.1,2.7c0,1.1,0.4,2,1.1,2.7v6.9c-0.3,0-0.6,0-0.9,0c-0.7,0-1.4-0.1-2.1-0.2v-16
		c0.2,0,0.5-0.1,0.7-0.1l0,0c0.5-0.1,0.9-0.1,1.4-0.1c0.3,0,0.6,0,0.9,0C70.1,140.8,70.1,144.9,70.1,144.9z"/>
	<path class="st3" d="M69.2,139.1c-0.3,0.6-0.9,1.3-1.4,1.9l0,0c-0.2,0-0.5,0.1-0.7,0.1c-0.6,0.1-1.1,0.3-1.6,0.5
		c-0.1-1.2,0.5-3.5,1.6-4C68.4,136.8,69.8,137.9,69.2,139.1z"/>
	<path class="st2" d="M67.1,141v16c-0.5-0.1-1-0.2-1.5-0.4h-0.1c-0.1,0-0.2-0.1-0.3-0.1v-14.9c0.1,0,0.2-0.1,0.2-0.1
		C66,141.3,66.5,141.2,67.1,141z"/>
</g>
<g>
	<path class="st13" d="M53.3,75.8C53.3,75.8,53.3,75.7,53.3,75.8L53.3,75.8c0.2,0.4-0.1,1.2-0.3,1.4"/>
	<path class="st1" d="M47.9,63.9v11.6c-0.2-0.1-0.3-0.1-0.5-0.2l0,0c-0.7-0.4-1.3-0.8-1.8-1.3v-8.5c0.1-0.2,0.3-0.3,0.5-0.4
		c0.4-0.4,0.9-0.7,1.4-0.9C47.6,64,47.7,63.9,47.9,63.9z"/>
	<path class="st2" d="M45.5,65.4v8.5c-0.8-0.8-1.4-1.8-1.6-2.9c-0.1-0.4-0.2-0.9-0.2-1.3c0-0.1,0-0.3,0-0.4l0,0
		C43.9,67.8,44.5,66.5,45.5,65.4z"/>
	<path class="st1" d="M56.4,68.4c0,0.7-0.6,1.3-1.3,1.3s-1.3-0.6-1.3-1.3c0-0.7,0.6-1.3,1.3-1.3C55.8,67,56.4,67.6,56.4,68.4z"/>
	<path class="st1" d="M56.4,68.4c0,0.7-0.6,1.3-1.3,1.3s-1.3-0.6-1.3-1.3c0-0.7,0.6-1.3,1.3-1.3C55.8,67,56.4,67.6,56.4,68.4z"/>
	<path class="st3" d="M54,65.4c-0.9,0-1.7,0.4-2.3,1c-0.5,0.6-0.8,1.3-0.8,2.1c0,0.8,0.3,1.6,0.8,2.1c0.6,0.6,1.4,1,2.3,1
		c1.7,0,3.1-1.4,3.1-3.1C57.1,66.8,55.7,65.4,54,65.4z M55.1,69.7c-0.7,0-1.3-0.6-1.3-1.3c0-0.7,0.6-1.3,1.3-1.3s1.3,0.6,1.3,1.3
		C56.4,69.1,55.8,69.7,55.1,69.7z"/>
	<path class="st1" d="M56.4,68.4c0,0.7-0.6,1.3-1.3,1.3s-1.3-0.6-1.3-1.3c0-0.7,0.6-1.3,1.3-1.3C55.8,67,56.4,67.6,56.4,68.4z"/>
	<path class="st1" d="M57.7,63.8c0,0.4-0.3,0.7-0.7,0.7s-0.7-0.3-0.7-0.7c0-0.4,0.3-0.7,0.7-0.7S57.7,63.4,57.7,63.8z"/>
	<path class="st14" d="M53,63.5c0.9-1,2.2-1.8,3.4-1.6c1.4,0.3,0.9,1.3,0.7,1.7"/>
	<path class="st13" d="M54.4,75.2c0.2,0.4-0.1,1.3-0.3,1.4"/>
	<path class="st2" d="M58.2,69.7c0,2.6-1.7,4.8-4.1,5.8l0,0c-0.2,0.1-0.5,0.2-0.8,0.3l0,0l0,0c-0.5,0.2-1.1,0.3-1.6,0.3v-5.3
		c0.6,0.6,1.4,1,2.3,1c1.7,0,3.1-1.4,3.1-3.1c0-1.7-1.4-3.1-3.1-3.1c-0.9,0-1.7,0.4-2.3,1v-3.1c0.5,0,0.9,0.1,1.3,0.2
		c0.3,0.1,0.6,0.2,0.9,0.3l0,0C56.4,64.8,58.2,67.1,58.2,69.7z"/>
	<path class="st13" d="M46.9,76.2c-0.2-0.1-0.5-1-0.3-1.4l0,0"/>
	<path class="st13" d="M48.4,76.9c-0.2-0.1-0.4-0.9-0.3-1.3c0,0,0,0,0.1,0"/>
	<path class="st1" d="M43.9,71H41c-0.4,0,1.7-1.8,2.8-1.8l0,0c0,0.1,0,0.3,0,0.4C43.7,70.1,43.8,70.6,43.9,71z"/>
	<path class="st3" d="M47.5,64.1c-0.5,0.3-1,0.6-1.4,0.9c-1-0.1-2-0.5-2.3-0.9c-0.5-0.7-0.2-1.5,0.5-1.8C45,62.1,47.2,63,47.5,64.1z
		"/>
	<path class="st1" d="M51.7,66.4c-0.5,0.6-0.8,1.3-0.8,2.1c0,0.8,0.3,1.6,0.8,2.1v5.3c-0.2,0-0.5,0-0.7,0c-0.6,0-1.1-0.1-1.6-0.2
		V63.4c0.2,0,0.4-0.1,0.5-0.1l0,0c0.4,0,0.7-0.1,1.1-0.1c0.2,0,0.5,0,0.7,0V66.4z"/>
	<path class="st3" d="M51,61.9c-0.2,0.5-0.7,1-1.1,1.4l0,0c-0.2,0-0.4,0.1-0.5,0.1c-0.4,0.1-0.9,0.2-1.3,0.4c-0.1-1,0.4-2.7,1.3-3.2
		C50.3,60.2,51.4,60.9,51,61.9z"/>
	<path class="st2" d="M49.3,63.4v12.5c-0.4-0.1-0.8-0.2-1.2-0.3c0,0,0,0-0.1,0c-0.1,0-0.2-0.1-0.2-0.1V63.9c0.1,0,0.1-0.1,0.2-0.1
		C48.5,63.6,48.9,63.5,49.3,63.4z"/>
</g>
<g>
	<path class="st13" d="M242.3,48.6C242.3,48.6,242.3,48.5,242.3,48.6L242.3,48.6c0.2,0.4-0.1,1.2-0.3,1.4"/>
	<path class="st1" d="M236.9,36.7v11.6c-0.2-0.1-0.3-0.1-0.5-0.2l0,0c-0.7-0.4-1.3-0.8-1.8-1.3v-8.5c0.1-0.2,0.3-0.3,0.5-0.4
		c0.4-0.4,0.9-0.7,1.4-0.9C236.6,36.8,236.7,36.7,236.9,36.7z"/>
	<path class="st2" d="M234.5,38.2v8.5c-0.8-0.8-1.4-1.8-1.6-2.9c-0.1-0.4-0.2-0.9-0.2-1.3c0-0.1,0-0.3,0-0.4l0,0
		C232.9,40.6,233.5,39.3,234.5,38.2z"/>
	<path class="st1" d="M245.4,41.2c0,0.7-0.6,1.3-1.3,1.3s-1.3-0.6-1.3-1.3s0.6-1.3,1.3-1.3C244.8,39.8,245.4,40.4,245.4,41.2z"/>
	<path class="st1" d="M245.4,41.2c0,0.7-0.6,1.3-1.3,1.3s-1.3-0.6-1.3-1.3s0.6-1.3,1.3-1.3C244.8,39.8,245.4,40.4,245.4,41.2z"/>
	<path class="st3" d="M243,38.2c-0.9,0-1.7,0.4-2.3,1c-0.5,0.6-0.8,1.3-0.8,2.1s0.3,1.6,0.8,2.1c0.6,0.6,1.4,1,2.3,1
		c1.7,0,3.1-1.4,3.1-3.1S244.7,38.2,243,38.2z M244.1,42.5c-0.7,0-1.3-0.6-1.3-1.3s0.6-1.3,1.3-1.3s1.3,0.6,1.3,1.3
		C245.4,41.9,244.8,42.5,244.1,42.5z"/>
	<path class="st1" d="M245.4,41.2c0,0.7-0.6,1.3-1.3,1.3s-1.3-0.6-1.3-1.3s0.6-1.3,1.3-1.3C244.8,39.8,245.4,40.4,245.4,41.2z"/>
	<path class="st1" d="M246.7,36.6c0,0.4-0.3,0.7-0.7,0.7c-0.4,0-0.7-0.3-0.7-0.7s0.3-0.7,0.7-0.7C246.4,35.9,246.7,36.2,246.7,36.6z
		"/>
	<path class="st14" d="M242,36.3c0.9-1,2.2-1.8,3.4-1.6c1.4,0.3,0.9,1.3,0.7,1.7"/>
	<path class="st13" d="M243.4,48c0.2,0.4-0.1,1.3-0.3,1.4"/>
	<path class="st2" d="M247.2,42.5c0,2.6-1.7,4.8-4.1,5.8l0,0c-0.2,0.1-0.5,0.2-0.8,0.3l0,0l0,0c-0.5,0.2-1.1,0.3-1.6,0.3v-5.3
		c0.6,0.6,1.4,1,2.3,1c1.7,0,3.1-1.4,3.1-3.1c0-1.7-1.4-3.1-3.1-3.1c-0.9,0-1.7,0.4-2.3,1v-3.1c0.5,0,0.9,0.1,1.3,0.2
		c0.3,0.1,0.6,0.2,0.9,0.3l0,0C245.4,37.6,247.2,39.9,247.2,42.5z"/>
	<path class="st13" d="M235.9,49c-0.2-0.1-0.5-1-0.3-1.4l0,0"/>
	<path class="st13" d="M237.4,49.7c-0.2-0.1-0.4-0.9-0.3-1.3c0,0,0,0,0.1,0"/>
	<path class="st1" d="M232.9,43.8H230c-0.4,0,1.7-1.8,2.8-1.8l0,0c0,0.1,0,0.3,0,0.4C232.7,42.9,232.8,43.4,232.9,43.8z"/>
	<path class="st3" d="M236.5,36.9c-0.5,0.3-1,0.6-1.4,0.9c-1-0.1-2-0.5-2.3-0.9c-0.5-0.7-0.2-1.5,0.5-1.8
		C234,34.9,236.2,35.8,236.5,36.9z"/>
	<path class="st1" d="M240.7,39.2c-0.5,0.6-0.8,1.3-0.8,2.1s0.3,1.6,0.8,2.1v5.3c-0.2,0-0.5,0-0.7,0c-0.6,0-1.1-0.1-1.6-0.2V36.2
		c0.2,0,0.4-0.1,0.5-0.1l0,0c0.4,0,0.7-0.1,1.1-0.1c0.2,0,0.5,0,0.7,0V39.2z"/>
	<path class="st3" d="M240,34.7c-0.2,0.5-0.7,1-1.1,1.4l0,0c-0.2,0-0.4,0.1-0.5,0.1c-0.4,0.1-0.9,0.2-1.3,0.4
		c-0.1-1,0.4-2.7,1.3-3.2C239.3,33,240.4,33.7,240,34.7z"/>
	<path class="st2" d="M238.3,36.2v12.5c-0.4-0.1-0.8-0.2-1.2-0.3c0,0,0,0-0.1,0c-0.1,0-0.2-0.1-0.2-0.1V36.7c0.1,0,0.1-0.1,0.2-0.1
		C237.5,36.4,237.9,36.3,238.3,36.2z"/>
</g>
<g>
	<path class="st15" d="M258,174c-0.2-0.2-0.4-0.8-0.2-1.1l0,0c0-0.1,0,0,0,0"/>
	<path class="st1" d="M262.1,164.3c0.4,0.2,0.8,0.4,1.1,0.7c0.2,0.1,0.3,0.2,0.4,0.3v6.4c-0.4,0.4-0.8,0.7-1.4,1l0,0
		c-0.2,0.1-0.2,0.1-0.4,0.2V164C262,164,262,164.1,262.1,164.3z"/>
	<path class="st2" d="M265,168.1L265,168.1c0,0.1,0,0.2,0,0.3c0,0.3-0.1,0.7-0.2,1c-0.2,0.8-0.6,1.6-1.2,2.2v-6.4
		C264.4,166,264.8,167,265,168.1z"/>
	<path class="st1" d="M256.4,166.4c0.5,0,1,0.5,1,1c0,0.5-0.5,1-1,1c-0.5,0-1-0.5-1-1C255.4,166.8,255.9,166.4,256.4,166.4z"/>
	<path class="st1" d="M256.4,166.4c0.5,0,1,0.5,1,1c0,0.5-0.5,1-1,1c-0.5,0-1-0.5-1-1C255.4,166.8,255.9,166.4,256.4,166.4z"/>
	<path class="st3" d="M254.9,167.5c0,1.3,1.1,2.3,2.3,2.3c0.7,0,1.3-0.3,1.7-0.8c0.4-0.4,0.6-1,0.6-1.6c0-0.6-0.2-1.1-0.6-1.6
		c-0.5-0.5-1.1-0.8-1.7-0.8C256,165.2,254.9,166.2,254.9,167.5z M255.4,167.4c0-0.5,0.5-1,1-1c0.5,0,1,0.5,1,1c0,0.5-0.5,1-1,1
		C255.9,168.4,255.4,167.9,255.4,167.4z"/>
	<path class="st1" d="M256.4,166.4c0.5,0,1,0.5,1,1c0,0.5-0.5,1-1,1c-0.5,0-1-0.5-1-1C255.4,166.8,255.9,166.4,256.4,166.4z"/>
	<path class="st1" d="M255,163.4c0.3,0,0.5,0.2,0.5,0.5s-0.2,0.5-0.5,0.5s-0.5-0.2-0.5-0.5S254.7,163.4,255,163.4z"/>
	<line class="st4" x1="263.6" y1="171.5" x2="263.6" y2="171.8"/>
	<path class="st16" d="M254.9,163.8c-0.2-0.3-0.5-1.1,0.5-1.3c0.9-0.2,1.9,0.5,2.6,1.2"/>
	<path class="st15" d="M257.2,173.6c-0.2-0.1-0.4-0.8-0.2-1.1"/>
	<path class="st2" d="M257.3,164.1L257.3,164.1c0.2-0.1,0.5-0.2,0.7-0.2c0.3-0.1,0.6-0.2,1-0.2v2.3c-0.5-0.5-1.1-0.8-1.7-0.8
		c-1.3,0-2.3,1.1-2.3,2.3s1.1,2.3,2.3,2.3c0.7,0,1.3-0.3,1.7-0.8v4c-0.4,0-0.8-0.1-1.2-0.2l0,0l0,0c-0.2-0.1-0.5-0.2-0.6-0.2l0,0
		c-1.8-0.8-3.1-2.4-3.1-4.4C254.1,166.4,255.4,164.7,257.3,164.1z"/>
	<path class="st15" d="M262.8,172.2L262.8,172.2c0.2,0.3-0.1,1-0.2,1.1"/>
	<path class="st15" d="M261.6,172.8C261.7,172.8,261.7,172.8,261.6,172.8c0.2,0.3,0,0.9-0.2,1"/>
	<path class="st1" d="M264.9,168.3c0-0.1,0-0.2,0-0.3l0,0c0.8,0,2.4,1.4,2.1,1.4h-2.2C264.9,169.1,265,168.7,264.9,168.3z"/>
	<path class="st3" d="M264.5,162.8c0.5,0.2,0.8,0.8,0.4,1.4c-0.2,0.3-1,0.6-1.7,0.7c-0.3-0.2-0.7-0.5-1.1-0.7
		C262.3,163.4,264,162.7,264.5,162.8z"/>
	<path class="st1" d="M259,163.5c0.2,0,0.4,0,0.5,0c0.3,0,0.5,0.1,0.8,0.1l0,0c0.1,0,0.2,0.1,0.4,0.1v9.2c-0.4,0.1-0.8,0.2-1.2,0.2
		c-0.2,0-0.4,0-0.5,0v-4c0.4-0.4,0.6-1,0.6-1.6c0-0.6-0.2-1.1-0.6-1.6V163.5z"/>
	<path class="st3" d="M260.7,161.6c0.7,0.4,1.1,1.7,1,2.4c-0.3-0.2-0.7-0.2-1-0.3c-0.1,0-0.2-0.1-0.4-0.1l0,0
		c-0.3-0.3-0.7-0.7-0.8-1.1C259.2,161.8,260,161.3,260.7,161.6z"/>
	<path class="st2" d="M261.7,164c0.1,0,0.1,0.1,0.2,0.1v8.7c0,0-0.1,0.1-0.2,0.1s-0.1,0-0.1,0c-0.3,0.1-0.6,0.2-0.9,0.2v-9.4
		C261.1,163.7,261.4,163.8,261.7,164z"/>
</g>
</svg>
