<?xml version="1.0" encoding="utf-8"?>
<!-- Generator: Adobe Illustrator 22.1.0, SVG Export Plug-In . SVG Version: 6.00 Build 0)  -->
<svg version="1.1" id="Calque_1" xmlns="http://www.w3.org/2000/svg" xmlns:xlink="http://www.w3.org/1999/xlink" x="0px" y="0px"
	 viewBox="0 0 200.1 200.3" style="enable-background:new 0 0 200.1 200.3;" xml:space="preserve">
<style type="text/css">
	.st0{fill:#241628;}
	.st1{fill:#F1BB04;}
	.st2{fill:#FFFFFF;}
	.st3{fill:none;stroke:#FFFFFF;stroke-width:2;stroke-linecap:round;stroke-linejoin:round;stroke-miterlimit:10;}
</style>
<g id="Calque_1_1_">
</g>
<g id="Calque_2_1_">
	<g>
		<path class="st0" d="M167.9,171.8c5.2-9.8,8.1-21.1,8.1-33.1c0-21.2-9.2-40.2-23.5-52.7c0.4-0.6,0.7-1.2,1.1-1.7
			c16.6,11.1,27.5,29.5,27.5,50.4C181.1,148.5,176.2,161.4,167.9,171.8z"/>
		<path class="st1" d="M176,138.6c0,12-2.9,23.3-8.1,33.1c-6.5,8.2-15.1,14.7-25.1,18.9c3.3-2.9,6.2-6.2,8.9-9.7
			c8.7-11.6,13.9-26.3,13.9-42.3c0-18-6.5-34.3-17.2-46.5c1.3-1.9,2.7-4,4.1-6.3C166.9,98.4,176,117.4,176,138.6z"/>
		<path class="st0" d="M165.6,138.6c0,16-5.2,30.7-13.9,42.3c-2.6,3.6-5.6,6.8-8.9,9.7c-2,0.9-4.1,1.6-6.3,2.3
			c-0.6,0.2-1.1,0.3-1.7,0.5c-0.7,0.2-1.4,0.4-2.1,0.5c-0.6,0.1-1.2,0.3-1.7,0.4c-0.3,0.1-0.6,0.1-0.9,0.2c-0.6,0.1-1.2,0.2-1.9,0.3
			c-0.6,0.1-1.1,0.2-1.7,0.3c-0.1,0-0.1,0-0.2,0c-0.2,0-0.4,0.1-0.6,0.1c-0.4,0.1-0.8,0.1-1.2,0.1c-0.5,0.1-0.9,0.1-1.4,0.1
			c-0.5,0.1-0.9,0.1-1.4,0.1c16.4-11.6,27.1-31.2,27.1-53.4c0-13.8-4.1-26.6-11.2-37c0.9-0.7,1.9-1.6,3.1-2.8
			c1.5-1.6,4.2-5.4,7.6-10.4C159.1,104.4,165.6,120.7,165.6,138.6z"/>
		<path class="st1" d="M148.9,142.4c0,22.2-10.8,41.8-27.1,53.4c-1.7,0.1-3.5,0.2-5.2,0.2c-7.6,0-14.9-1.3-21.7-3.6
			c17.9-9,30.3-27.6,30.3-49.1c0-23.2-14.4-43-34.7-51c0.8-2.8,3.3-8.1,6.1-13.7c13.7,2.2,25.9,9.1,35,19.1l0,0
			c0,1.9,0.1,3.5,0.2,4.8c0.2,3.4,1.5,6.2,5.8,2.8C144.8,115.9,148.9,128.6,148.9,142.4z"/>
		<path class="st1" d="M82.5,83.4c-1.2,2.6-2.2,5.1-3,7c-1.9-0.3-3.9-0.6-5.9-0.7C76.4,87.4,79.4,85.3,82.5,83.4z"/>
		<path class="st0" d="M132.1,78.7c-0.4,7.2-0.5,14-0.3,19c-9.2-10-21.4-16.9-35-19.1c0.5-1,1-2.1,1.6-3.1c5.8-1.6,12-2.5,18.3-2.5
			c0.9,0,1.8,0,2.7,0.1c4.5,0.2,8.8,0.8,13,1.8C132.2,76.2,132.1,77.5,132.1,78.7z"/>
		<path class="st0" d="M100.6,142.7c0,6.9-4.9,12.4-11,12.4s-11-5.6-11-12.4c0-6.9,4.9-12.5,11-12.5S100.6,135.8,100.6,142.7z"/>
		<path class="st2" d="M182.6,33.9c-2.1,6.4-17.3,32-29,50.3c-0.4,0.6-0.7,1.2-1.1,1.7c-1.5,2.2-2.8,4.3-4.1,6.3
			c-3.3,5-6.1,8.8-7.6,10.4c-1.2,1.2-2.2,2.2-3.1,2.8c-4.4,3.3-5.6,0.5-5.8-2.8c-0.1-1.3-0.1-2.9-0.2-4.8l0,0
			c-0.1-5-0.1-11.8,0.3-19c0.1-1.3,0.2-2.5,0.2-3.8c0-0.3,0-0.6,0.1-0.9c0.9-11.8,2.8-23.8,6.4-30.1c8.3-14.6,24.1-24.3,31-26.3
			C176.6,15.5,185.8,24.4,182.6,33.9z"/>
		<path class="st2" d="M62.1,41.6c-1-0.4-2-0.5-3.1-0.5c-4.9,0-8.9,4-8.9,8.9c0,2,0.7,3.9,1.8,5.4c-1.8,6.5-4.3,18.3-6,28.3
			C39,74.6,15.2,40.2,12.5,28.5C9.8,16.1,16.6,1.2,29.5,2C42.4,2.9,55.6,21.2,59,29.5C60,31.7,61.1,36.1,62.1,41.6z"/>
		<path class="st2" d="M68,88.6c-0.2,0-0.3,0-0.5,0c-3.7,0.2-7.4,0.7-10.9,1.6c0.1-0.4,0.1-0.9,0.2-1.4c0.2-1,0.3-2,0.5-3.1l0,0
			c1.6-8.7,4.5-21.3,6.1-28.2c0.4-0.2,0.8-0.5,1.2-0.9c1.2,8.1,2.3,16.6,2.8,23.5c0,0.3,0.1,0.6,0.1,0.9c0.2,2.6,0.3,5,0.3,7
			C68,88.3,68,88.4,68,88.6z"/>
		<path class="st0" d="M90.5,92.4c0.8-2.8,3.3-8.1,6.1-13.7c0.5-1,1-2.1,1.6-3.1c0.7-1.4,1.4-2.8,2.1-4.2c0.2-0.3,0.3-0.7,0.5-1
			c1.7-3.3,3.2-6.4,4.3-8.8c4.5-0.5,7.9-4.3,7.9-8.9c0-4.9-4-8.9-8.9-8.9s-8.9,4-8.9,8.9c0,1.2,0.2,2.3,0.7,3.4
			c-1.9,2.8-5.3,9.1-8.6,15.8l0,0c-0.7,1.4-1.4,2.9-2.1,4.3c-0.3,0.6-0.6,1.2-0.8,1.8c-0.7,1.5-1.4,3-2,4.3c-1.2,2.6-2.2,5.1-3,7
			c-1.9-0.3-3.9-0.6-5.9-0.7c-1.1-0.1-2.2-0.1-3.3-0.1c-0.8,0-1.5,0-2.3,0c-0.2,0-0.3,0-0.5,0c-3.7,0.2-7.4,0.7-10.9,1.6
			c0.1-0.4,0.1-0.9,0.2-1.4c0.2-1,0.3-2,0.5-3.1l0,0c1.6-8.7,4.5-21.3,6.1-28.2l1.2-0.9c1.9-1.6,3.2-4.1,3.2-6.8
			c0-3.8-2.4-7.1-5.8-8.3c-1-0.4-2-0.5-3.1-0.5c-4.9,0-8.9,4-8.9,8.9c0,2,0.7,3.9,1.8,5.4c-1.8,6.5-4.3,18.3-6,28.3
			c-0.8,4.4-1.4,8.5-1.8,11.5c-8.2,4.4-15.2,11-20.2,18.8c-4.5,15.5-4.1,48.5-1.3,56.7l0,0l0,0c6.3,10.9,16.2,19.4,28,24
			c5.8,2.2,12.2,3.5,18.8,3.6c0.3,0,0.5,0,0.8,0c2.9,0,5.8-0.2,8.6-0.7c5.7-0.9,11-2.6,16-5.1l0,0c17.9-9,30.3-27.6,30.3-49.1
			C125.2,120.2,110.8,100.4,90.5,92.4z M89.7,171c-11.1,0-20.6-7-24.7-17.1c-1.4-3.4-2.2-7.3-2.2-11.2c0-15.6,12-28.3,26.9-28.3
			s26.9,12.7,26.9,28.3c0,1,0,2-0.1,3C115,159.9,103.6,171,89.7,171z"/>
		<path class="st2" d="M89.7,114.3c-14.9,0-26.9,12.7-26.9,28.3c0,4,0.8,7.8,2.2,11.2c4.1,10,13.6,17.1,24.7,17.1
			c13.9,0,25.4-11.1,26.8-25.4c0.1-1,0.1-2,0.1-3C116.6,127,104.5,114.3,89.7,114.3z M89.6,155.1c-6.1,0-11-5.6-11-12.4
			c0-6.9,4.9-12.5,11-12.5s11,5.6,11,12.5C100.6,149.5,95.7,155.1,89.6,155.1z"/>
		<path class="st0" d="M17.6,158.5c-1.4-4.8-2.1-9.8-2.1-15.1c0-6.3,1.1-12.3,3-17.9C17.2,136.1,17,148.9,17.6,158.5z"/>
		<path class="st2" d="M22.8,170.7c-1.2-2.1-2.3-4.3-3.2-6.6V164l-1.9-5.6c-0.6-9.6-0.4-22.4,0.9-32.9c0.6-1.7,1.3-3.4,2-5.1
			c1-2.2,2.2-4.4,3.5-6.5C19.6,129.4,19.9,162.5,22.8,170.7z"/>
	</g>
</g>
<path class="st3" d="M33.4,181.6c7.3,5.8,20.6,6.8,29.4,1.5"/>
</svg>
