<?xml version="1.0" encoding="utf-8"?>
<!-- Generator: Adobe Illustrator 22.1.0, SVG Export Plug-In . SVG Version: 6.00 Build 0)  -->
<svg version="1.1" id="Calque_1" xmlns="http://www.w3.org/2000/svg" xmlns:xlink="http://www.w3.org/1999/xlink" x="0px" y="0px"
	 viewBox="0 0 200.1 200.3" style="enable-background:new 0 0 200.1 200.3;" xml:space="preserve">
<style type="text/css">
	.st0{fill:#F2C64B;}
	.st1{fill:#241628;}
	.st2{fill:#F1BB04;}
	.st3{fill:#FFFFFF;}
	.st4{fill:none;stroke:#FFFFFF;stroke-width:2;stroke-linecap:round;stroke-linejoin:round;stroke-miterlimit:10;}
</style>
<g id="Calque_1_1_">
</g>
<g id="Calque_2_1_">
	<path class="st0" d="M99.3,25.9C81.9,2,34.1-5.4,11.9,31.8s8,70.8,21.3,83.2s61,48.7,66.2,52.9c9-4.6,58.4-43.5,67.4-51.8
		c17.2-15.9,43.7-52.6,20-85.2S119.2,0.1,99.3,25.9z"/>
	<g>
		<path class="st1" d="M160.6,168.5c4.4-8.4,7-18.2,7-28.5c0-18.3-7.9-34.6-20.2-45.4c0.3-0.5,0.6-1,1-1.5
			c14.3,9.6,23.7,25.4,23.7,43.3C171.9,148.5,167.7,159.6,160.6,168.5z"/>
		<path class="st2" d="M167.5,140c0,10.4-2.5,20.1-7,28.5c-5.6,7-13,12.7-21.6,16.3c2.8-2.5,5.4-5.3,7.6-8.4c7.5-10,12-22.7,12-36.4
			c0-15.5-5.6-29.5-14.8-40c1.1-1.7,2.3-3.5,3.6-5.4C159.6,105.4,167.5,121.7,167.5,140z"/>
		<path class="st1" d="M158.6,140c0,13.8-4.5,26.4-12,36.4c-2.3,3.1-4.8,5.9-7.6,8.4c-1.8,0.7-3.5,1.4-5.4,2c-0.5,0.2-1,0.3-1.5,0.4
			c-0.6,0.2-1.2,0.3-1.8,0.5c-0.5,0.1-1,0.2-1.5,0.3c-0.3,0.1-0.5,0.1-0.8,0.2c-0.5,0.1-1.1,0.2-1.6,0.3s-1,0.2-1.5,0.2h-0.1
			c-0.2,0-0.4,0-0.5,0.1c-0.3,0-0.7,0.1-1,0.1c-0.4,0-0.8,0.1-1.2,0.1c-0.4,0-0.8,0.1-1.2,0.1c14.1-10,23.3-26.8,23.3-46
			c0-11.9-3.6-22.9-9.6-31.9c0.8-0.6,1.6-1.4,2.6-2.5c1.3-1.4,3.6-4.6,6.5-8.9C152.9,110.5,158.6,124.5,158.6,140z"/>
		<path class="st2" d="M144.2,143.3c0,19.1-9.3,36-23.3,46c-1.5,0.1-3,0.2-4.5,0.2c-6.6,0-12.8-1.1-18.7-3.1
			c15.4-7.8,26.1-23.7,26.1-42.2c0-19.9-12.4-37-29.8-43.9c0.7-2.4,2.9-7,5.3-11.8c11.8,1.9,22.3,7.8,30.2,16.4l0,0
			c0,1.6,0.1,3,0.2,4.1c0.2,2.9,1.3,5.3,5,2.5C140.6,120.4,144.2,131.4,144.2,143.3z"/>
		<path class="st2" d="M87.1,92.5c-1,2.3-1.9,4.4-2.6,6.1c-1.7-0.3-3.3-0.5-5.1-0.6C81.8,95.9,84.3,94.1,87.1,92.5z"/>
		<path class="st1" d="M129.7,88.4c-0.4,6.2-0.4,12.1-0.3,16.4c-7.9-8.6-18.4-14.5-30.2-16.4c0.4-0.9,0.9-1.8,1.4-2.7
			c5-1.4,10.3-2.2,15.8-2.2c0.8,0,1.6,0,2.3,0c3.8,0.1,7.6,0.7,11.2,1.5C129.8,86.2,129.7,87.3,129.7,88.4z"/>
		<path class="st1" d="M102.6,143.5c0,5.9-4.2,10.7-9.4,10.7c-5.2,0-9.5-4.8-9.5-10.7s4.2-10.7,9.5-10.7
			C98.4,132.7,102.6,137.5,102.6,143.5z"/>
		<path class="st3" d="M173.2,49.8c-1.8,5.5-14.9,27.6-25,43.3c-0.3,0.5-0.6,1-1,1.5c-1.3,1.9-2.4,3.7-3.6,5.4
			c-2.9,4.3-5.2,7.5-6.5,8.9c-1,1.1-1.9,1.9-2.6,2.5c-3.8,2.9-4.8,0.4-5-2.5c-0.1-1.1-0.1-2.5-0.2-4.1l0,0
			c-0.1-4.3-0.1-10.2,0.3-16.4c0.1-1.1,0.1-2.2,0.2-3.3c0-0.3,0-0.5,0.1-0.8c0.8-10.2,2.4-20.5,5.5-25.9
			c7.1-12.5,20.7-20.9,26.6-22.7C168.1,34,175.9,41.7,173.2,49.8z"/>
		<path class="st3" d="M69.5,56.5c-0.8-0.3-1.7-0.5-2.6-0.5c-4.2,0-7.6,3.4-7.6,7.6c0,1.8,0.6,3.4,1.6,4.7
			c-1.5,5.6-3.7,15.7-5.2,24.3C49.8,84.7,29.3,55.2,27,45.1c-2.5-10.6,3.5-23.4,14.6-22.7c11,0.8,22.3,16.6,25.3,23.7
			C67.6,48,68.6,51.7,69.5,56.5z"/>
		<path class="st3" d="M74.6,96.9c-0.1,0-0.3,0-0.4,0c-3.2,0.2-6.4,0.6-9.4,1.4c0.1-0.4,0.1-0.8,0.2-1.2c0.1-0.8,0.3-1.7,0.5-2.7
			l0,0c1.4-7.5,3.9-18.3,5.3-24.3c0.4-0.2,0.7-0.5,1.1-0.8c1.1,7,2,14.3,2.4,20.2c0,0.3,0,0.5,0.1,0.8c0.2,2.3,0.3,4.3,0.3,6
			C74.6,96.7,74.6,96.8,74.6,96.9z"/>
		<path class="st1" d="M93.9,100.2c0.7-2.4,2.9-7,5.3-11.8c0.4-0.9,0.9-1.8,1.4-2.7c0.6-1.2,1.2-2.4,1.8-3.6
			c0.2-0.3,0.3-0.6,0.4-0.9c1.5-2.9,2.8-5.5,3.7-7.5c3.8-0.4,6.8-3.7,6.8-7.6c0-4.2-3.4-7.6-7.6-7.6S98,61.9,98,66.1
			c0,1,0.2,2,0.6,2.9c-1.7,2.4-4.5,7.8-7.4,13.6l0,0c-0.6,1.2-1.2,2.5-1.8,3.7c-0.2,0.5-0.5,1-0.7,1.5c-0.6,1.3-1.2,2.5-1.7,3.7
			c-1,2.3-1.9,4.4-2.6,6.1c-1.7-0.3-3.3-0.5-5.1-0.6c-0.9-0.1-1.9-0.1-2.8-0.1c-0.7,0-1.3,0-2,0c-0.1,0-0.3,0-0.4,0
			c-3.2,0.2-6.4,0.6-9.4,1.4c0.1-0.4,0.1-0.8,0.2-1.2c0.1-0.8,0.3-1.7,0.5-2.7l0,0c1.4-7.5,3.9-18.3,5.3-24.3l1.1-0.8
			c1.7-1.4,2.7-3.5,2.7-5.8c0-3.3-2.1-6.1-5-7.2c-0.8-0.3-1.7-0.5-2.6-0.5c-4.2,0-7.6,3.4-7.6,7.6c0,1.8,0.6,3.4,1.6,4.7
			c-1.5,5.6-3.7,15.7-5.2,24.3c-0.7,3.8-1.2,7.3-1.5,9.9C47,106.4,41,112,36.7,118.8c-3.8,13.3-3.6,41.8-1.1,48.8l0,0l0,0
			c5.4,9.4,13.9,16.7,24.1,20.6c5,1.9,10.5,3,16.1,3.1c0.2,0,0.4,0,0.7,0c2.5,0,5-0.2,7.4-0.6c4.9-0.8,9.5-2.3,13.8-4.4l0,0
			c15.4-7.8,26.1-23.7,26.1-42.2C123.8,124.2,111.4,107.1,93.9,100.2z M93.2,167.8c-9.5,0-17.7-6.1-21.3-14.7
			c-1.2-3-1.9-6.2-1.9-9.7c0-13.5,10.4-24.4,23.2-24.4s23.2,10.9,23.2,24.4c0,0.9,0,1.7-0.1,2.5C115,158.3,105.2,167.8,93.2,167.8z"
			/>
		<path class="st3" d="M93.2,119.1C80.4,119.1,70,130,70,143.5c0,3.4,0.7,6.7,1.9,9.7c3.5,8.6,11.7,14.7,21.3,14.7
			c12,0,21.8-9.6,23-21.8c0.1-0.8,0.1-1.7,0.1-2.5C116.4,130,106,119.1,93.2,119.1z M93.1,154.2c-5.2,0-9.5-4.8-9.5-10.7
			s4.2-10.7,9.5-10.7c5.2,0,9.4,4.8,9.4,10.7C102.6,149.4,98.4,154.2,93.1,154.2z"/>
		<path class="st1" d="M31.2,157.1c-1.2-4.1-1.8-8.5-1.8-13c0-5.4,0.9-10.6,2.6-15.4C30.8,137.8,30.6,148.8,31.2,157.1z"/>
		<path class="st3" d="M35.6,167.6c-1-1.8-2-3.7-2.8-5.7v-0.1l-1.6-4.8c-0.5-8.2-0.3-19.2,0.8-28.3c0.5-1.5,1.1-3,1.8-4.4
			c0.9-1.9,1.9-3.8,3-5.6C32.9,132.1,33.2,160.5,35.6,167.6z"/>
	</g>
</g>
<path class="st4" d="M48,179.8c7.3,5.8,20.6,6.8,29.4,1.5"/>
</svg>
