<?xml version="1.0" encoding="utf-8"?>
<!-- Generator: Adobe Illustrator 22.1.0, SVG Export Plug-In . SVG Version: 6.00 Build 0)  -->
<svg version="1.1" xmlns="http://www.w3.org/2000/svg" xmlns:xlink="http://www.w3.org/1999/xlink" x="0px" y="0px"
	 viewBox="0 0 200.1 200.3" style="enable-background:new 0 0 200.1 200.3;" xml:space="preserve">
<style type="text/css">
	.st0{fill:#FFFFFF;}
	.st1{fill:#F2C64B;}
	.st2{fill:#FFFFFF;stroke:#241628;stroke-width:5;stroke-miterlimit:10;}
	.st3{fill:#241628;}
	.st4{fill:#F1BB04;}
	.st5{fill:#FAD835;}
	.st6{fill:#432948;}
	.st7{fill:#F8EED5;}
	.st8{fill:#FEFDFD;}
	.st9{fill:#FDFDFD;}
	.st10{fill:#FCFCFC;}
</style>
<g id="Calque_1">
</g>
<g id="Calque_2">
	<path class="st1" d="M98.8,21.9C81.4-2,33.6-9.4,11.4,27.9s8,70.8,21.3,83.2s61,48.7,66.2,52.9c9-4.6,58.4-43.5,67.4-51.8
		c17.2-15.9,43.7-52.6,20-85.2S118.7-3.8,98.8,21.9z"/>
	<path class="st2" d="M125.2,47.5c-0.8,2.3-6.3,11.7-10.6,18.4c-0.1,0.2-0.3,0.4-0.4,0.6c-0.5,0.8-1,1.6-1.5,2.3
		c-1.2,1.8-2.2,3.2-2.8,3.8c-0.4,0.5-0.8,0.8-1.1,1c-1.6,1.2-2,0.2-2.1-1c0-0.5-0.1-1.1-0.1-1.7c0,0,0,0,0,0c0-1.8,0-4.3,0.1-6.9
		c0-0.5,0.1-0.9,0.1-1.4c0-0.1,0-0.2,0-0.3c0.3-4.3,1-8.7,2.3-11c3-5.3,8.8-8.9,11.3-9.6C123,40.8,126.4,44,125.2,47.5z"/>
	<path class="st2" d="M73.8,47.5c0.8,2.3,6.3,11.7,10.6,18.4c0.1,0.2,0.3,0.4,0.4,0.6c0.5,0.8,1,1.6,1.5,2.3
		c1.2,1.8,2.2,3.2,2.8,3.8c0.4,0.5,0.8,0.8,1.1,1c1.6,1.2,2,0.2,2.1-1c0-0.5,0.1-1.1,0.1-1.7c0,0,0,0,0,0c0-1.8,0-4.3-0.1-6.9
		c0-0.5-0.1-0.9-0.1-1.4c0-0.1,0-0.2,0-0.3c-0.3-4.3-1-8.7-2.3-11c-3-5.3-8.8-8.9-11.3-9.6C76,40.8,72.7,44,73.8,47.5z"/>
	<g>
		<path class="st3" d="M55.3,96c-2.8-4.9-4.6-9.9-3.7-15.6c2-11.9,14.1-18.7,25.6-14.1c2.3,0.9,3.3,0.7,4.6-1.4
			c2.6-4.4,6.3-7.8,11.2-9.7c1.7-0.7,2.6-1.7,2.8-3.5c0.2-2.2,1.5-3.5,3.8-3.5c2.3,0,3.6,1.3,3.9,3.5c0.2,1.6,0.9,2.8,2.5,3.4
			c5.3,2,9,5.7,11.8,10.4c0.8,1.3,1.5,1.9,3.2,1.2c7.8-3.3,15.2-2.4,21.3,3.6c6.2,6,6.7,13.3,3.9,21c-0.6,1.6-1.5,3.1-2.3,4.8
			c2.6,1.1,4.9,2.5,6.7,4.6c5.2,6.3,4.3,15.1-2.2,20.6c-3.8,3.3-8.5,4.7-13.4,5.4c-6.5,0.9-13.1,1.7-19.7,0.9
			c-1.1-0.1-1.8,0.2-2.3,1.1c-2,3.2-4.7,5.5-8.4,6.8c-0.9,0.3-1.5,0.8-1.5,2c0,6,0,12,0,18c0,0.7,0,1.4,0.8,1.6
			c0.7,0.2,1.1-0.1,1.6-0.5c9.3-8.7,21-10.3,33.2-10.1c2.2,0,4.4,0.1,6.6,0.5c1.8,0.4,2.9,1.4,3.1,3.1c1.2,9.9,0.8,19.6-3.3,28.8
			c-4.7,10.7-13.7,16-25,17.9c-11.8,2-23.8,1.1-35.7,0.7c-2.3-0.1-4.7-0.6-7-1.1c-16.7-3.6-24.3-14.1-26.5-29.2
			c-0.8-5.6-0.8-11.2-0.1-16.7c0.3-1.9,1.2-3.4,3.2-3.6c11.8-1.4,23.3-0.8,34,5.1c2,1.1,3.8,2.5,5.4,4.1c0.5,0.5,1.1,1.1,1.9,0.8
			c1-0.3,0.8-1.2,0.8-1.9c0-5.8,0-11.7,0-17.5c0-1.2-0.4-1.8-1.5-2.2c-3.6-1.2-6.3-3.4-8.3-6.6c-0.6-1.1-1.4-1.4-2.7-1.2
			c-8,0.7-15.9-0.1-23.7-1.8c-5.5-1.2-10-4-12.8-8.9c-4.1-7.2-1.3-16.1,6.2-19.9C53.9,96.7,54.6,96.4,55.3,96z M70.1,72.4
			c-5.3-0.1-9.8,3.5-10.8,8.6c-1,5.1,0.9,9.5,4.2,13.2c6.9,7.6,14.6,14.4,23.8,19.4c2.1,1.2,4.6,3,7,1.2c2.4-1.8,1.4-4.7,0.8-7.2
			c-2.4-9.7-6.9-18.5-12-27c-1.1-1.9-2.7-3.4-4.4-4.8C76.3,73.8,73.5,72.4,70.1,72.4z M103.6,110c-0.2,5,1.6,6.3,5.7,4.8
			c1.9-0.7,3.8-1.7,5.6-2.8c7.2-4.6,13.6-10.3,19.6-16.3c2.3-2.3,4-5.1,4.9-8.2c1.6-5.1,0.2-10.1-3.7-12.9c-4.1-3-9.2-2.9-13.9,0.2
			c-3.3,2.2-5.7,5.1-7.5,8.5c-2.6,4.8-5.1,9.6-7.1,14.7C105.5,102.1,103.8,106.2,103.6,110z M135.3,153.9
			c-9.9,0.4-19.4,1.7-25.9,9.8c-5,6.2-6.9,13.4-6.1,21.9C114.2,174.9,124.6,164.5,135.3,153.9z M95.8,185.2
			c2.7-18-13.1-33.3-31.1-31C74.8,164.3,85.3,174.7,95.8,185.2z M89.2,190.4c-10.1-10-20.6-20.4-31.1-30.8
			C57.7,180.6,69.1,190.8,89.2,190.4z M109.9,190.6c19.7-0.2,31.5-8.7,31.2-30.9C130.5,170.1,120.1,180.4,109.9,190.6z M75.9,120.4
			c1.3,0,2.1,0,3,0c0.7,0,1.4-0.1,1.7-0.8c0.4-0.9-0.3-1.3-1-1.8c-6.4-4.2-12.1-9.2-17.7-14.4c-0.7-0.6-1.3-0.9-2.3-0.8
			c-2.9,0.5-5.2,1.8-6.3,4.7c-1.1,2.7-0.4,5.2,1.5,7.3c1.7,1.9,3.9,3.1,6.4,3.7C66.2,119.8,71.3,120,75.9,120.4z M122.5,120.5
			c4.8-0.3,9.5-0.7,14.2-1.6c2.8-0.5,5.3-1.6,7.3-3.7c1.9-2.1,2.9-4.4,2-7.2c-0.9-2.9-3-4.4-5.9-5.1c-1.5-0.3-2.4,0.3-3.3,1.2
			c-4.9,4.6-10,8.9-15.4,12.8c-1.1,0.7-3.2,1.1-2.6,2.8C119.3,121.3,121.2,120.1,122.5,120.5z M110.5,74.9c-7.4,0-14.6,0-21.9,0
			c1,1.6,2,2.8,2.7,4.2c0.7,1.4,1.5,1.9,3.1,1.8c3.6-0.1,7.3,0,10.9,0c0.9,0,1.6,0,2.1-0.9C108.3,78.3,109.4,76.8,110.5,74.9z
			 M99.6,67.2c2.3,0,4.6,0,6.8,0c0.7,0,1.4,0.1,1.7-0.7c0.3-0.7-0.1-1.2-0.6-1.7c-4.1-4.3-11.8-4.3-15.9,0c-0.5,0.5-0.9,1-0.6,1.7
			c0.3,0.8,1.1,0.7,1.7,0.7C95,67.2,97.3,67.2,99.6,67.2z M96.1,88.3c1.2,2.6,2.2,4.9,3.4,7.7c1.1-2.5,2.1-4.5,3-6.5
			c0.5-1,0-1.3-1-1.2C99.9,88.4,98.2,88.3,96.1,88.3z"/>
		<path class="st8" d="M70.1,72.4c3.4,0,6.2,1.4,8.7,3.5c1.7,1.4,3.2,2.9,4.4,4.8c5.1,8.5,9.6,17.3,12,27c0.6,2.4,1.5,5.3-0.8,7.2
			c-2.4,1.8-4.9,0-7-1.2c-9.1-5-16.9-11.8-23.8-19.4c-3.3-3.7-5.2-8.1-4.2-13.2C60.3,75.9,64.8,72.3,70.1,72.4z"/>
		<path class="st8" d="M103.6,110c0.3-3.8,1.9-7.9,3.6-12.1c2.1-5,4.5-9.9,7.1-14.7c1.8-3.4,4.2-6.3,7.5-8.5
			c4.7-3.1,9.9-3.2,13.9-0.2c3.9,2.8,5.3,7.7,3.7,12.9c-1,3.1-2.6,5.9-4.9,8.2c-6,6-12.4,11.7-19.6,16.3c-1.7,1.1-3.6,2.1-5.6,2.8
			C105.1,116.3,103.4,115,103.6,110z"/>
		<path class="st9" d="M135.3,153.9c-10.6,10.6-21.1,21-32,31.7c-0.8-8.5,1.1-15.7,6.1-21.9C115.9,155.6,125.3,154.3,135.3,153.9z"
			/>
		<path class="st9" d="M95.8,185.2c-10.5-10.5-21-20.9-31.1-31C82.7,151.9,98.4,167.1,95.8,185.2z"/>
		<path class="st9" d="M89.2,190.4c-20.1,0.4-31.5-9.8-31.1-30.8C68.7,170,79.1,180.4,89.2,190.4z"/>
		<path class="st9" d="M109.9,190.6c10.2-10.2,20.7-20.5,31.2-30.9C141.3,181.9,129.5,190.3,109.9,190.6z"/>
		<path class="st10" d="M75.9,120.4c-4.6-0.5-9.7-0.7-14.6-1.9c-2.5-0.6-4.7-1.8-6.4-3.7c-1.9-2.2-2.6-4.6-1.5-7.3
			c1.1-2.8,3.4-4.2,6.3-4.7c0.9-0.2,1.6,0.2,2.3,0.8c5.6,5.2,11.3,10.2,17.7,14.4c0.7,0.4,1.3,0.9,1,1.8c-0.3,0.7-1,0.8-1.7,0.8
			C78,120.4,77.2,120.4,75.9,120.4z"/>
		<path class="st10" d="M122.5,120.5c-1.2-0.4-3.2,0.8-3.8-0.8c-0.7-1.7,1.5-2.1,2.6-2.8c5.5-3.9,10.6-8.2,15.4-12.8
			c0.9-0.9,1.8-1.5,3.3-1.2c3,0.7,5,2.2,5.9,5.1c0.9,2.8,0,5.2-2,7.2c-2,2.1-4.5,3.2-7.3,3.7C132,119.7,127.3,120.2,122.5,120.5z"/>
		<path class="st4" d="M110.5,74.9c-1.2,1.8-2.2,3.4-3.1,5c-0.5,1-1.3,0.9-2.1,0.9c-3.6,0-7.3-0.1-10.9,0c-1.6,0.1-2.5-0.4-3.1-1.8
			c-0.7-1.4-1.6-2.6-2.7-4.2C96,74.9,103.1,74.9,110.5,74.9z"/>
		<path class="st4" d="M99.6,67.2c-2.3,0-4.6,0-6.8,0c-0.7,0-1.4,0.1-1.7-0.7c-0.3-0.7,0.1-1.2,0.6-1.7c4.1-4.3,11.8-4.3,15.9,0
			c0.5,0.5,0.9,1,0.6,1.7c-0.3,0.8-1.1,0.7-1.7,0.7C104.1,67.2,101.9,67.2,99.6,67.2z"/>
		<path class="st4" d="M96.1,88.3c2,0,3.7,0,5.4,0c1,0,1.5,0.2,1,1.2c-0.9,2-1.9,4-3,6.5C98.3,93.3,97.3,90.9,96.1,88.3z"/>
	</g>
</g>
</svg>
